<svg width="1120" height="65" viewBox="0 0 1120 65" fill="none" xmlns="http://www.w3.org/2000/svg">
<rect width="1120" height="1" fill="#D9FFF5"/>
<path opacity="0.721842" d="M32.26 38.65C32.26 37.0167 33.1 36.2 34.78 36.2H39.68C41.36 36.2 42.2 37.0167 42.2 38.65V43.55C42.2 45.1833 41.36 46 39.68 46H34.78C33.1 46 32.26 45.1833 32.26 43.55V38.65ZM40.87 38.65C40.87 37.8567 40.4733 37.46 39.68 37.46H34.78C33.9867 37.46 33.59 37.8567 33.59 38.65V43.55C33.59 44.3433 33.9867 44.74 34.78 44.74H39.68C40.4733 44.74 40.87 44.3433 40.87 43.55V38.65ZM36.25 42.08C36.25 42.3133 36.3667 42.43 36.6 42.43H37.86C38.0933 42.43 38.21 42.3133 38.21 42.08V41.87C38.21 41.7767 38.2567 41.73 38.35 41.73H39.12C39.2133 41.73 39.26 41.7767 39.26 41.87V42.08C39.26 43.0133 38.7933 43.48 37.86 43.48H36.6C35.6667 43.48 35.2 43.0133 35.2 42.08V40.12C35.2 39.1867 35.6667 38.72 36.6 38.72H37.86C38.7933 38.72 39.26 39.1867 39.26 40.12V40.33C39.26 40.4233 39.2133 40.47 39.12 40.47H38.35C38.2567 40.47 38.21 40.4233 38.21 40.33V40.12C38.21 39.8867 38.0933 39.77 37.86 39.77H36.6C36.3667 39.77 36.25 39.8867 36.25 40.12V42.08ZM54.3778 39.14C54.3778 39.3827 54.3451 39.602 54.2798 39.798C54.2145 39.994 54.1305 40.1713 54.0278 40.33C53.9345 40.4887 53.8225 40.6333 53.6918 40.764C53.5705 40.8853 53.4491 40.9973 53.3278 41.1L49.1978 44.67V44.74H54.1678C54.3078 44.74 54.3778 44.81 54.3778 44.95V45.79C54.3778 45.93 54.3078 46 54.1678 46H47.4478C47.3078 46 47.2378 45.93 47.2378 45.79V45.02C47.2378 44.9173 47.2518 44.838 47.2798 44.782C47.3171 44.726 47.3731 44.6653 47.4478 44.6L52.4178 40.26C52.6231 40.0827 52.7771 39.924 52.8798 39.784C52.9918 39.6347 53.0478 39.42 53.0478 39.14V38.51C53.0478 37.7167 52.6511 37.32 51.8578 37.32H49.7578C48.9645 37.32 48.5678 37.7167 48.5678 38.51V39.07C48.5678 39.21 48.4978 39.28 48.3578 39.28H47.4478C47.3078 39.28 47.2378 39.21 47.2378 39.07V38.51C47.2378 36.8767 48.0778 36.06 49.7578 36.06H51.8578C53.5378 36.06 54.3778 36.8767 54.3778 38.51V39.14ZM64.6 43.69C64.6 45.3233 63.76 46.14 62.08 46.14H59.28C57.6 46.14 56.76 45.3233 56.76 43.69V38.51C56.76 36.8767 57.6 36.06 59.28 36.06H62.08C63.76 36.06 64.6 36.8767 64.6 38.51V43.69ZM58.09 43.69C58.09 44.4833 58.4867 44.88 59.28 44.88H62.08C62.8733 44.88 63.27 44.4833 63.27 43.69V38.51C63.27 37.7167 62.8733 37.32 62.08 37.32H59.28C58.4867 37.32 58.09 37.7167 58.09 38.51V43.69ZM69.7133 45.79C69.7133 45.93 69.6433 46 69.5033 46H68.5933C68.4533 46 68.3833 45.93 68.3833 45.79V37.46H66.3533C66.2133 37.46 66.1433 37.39 66.1433 37.25V36.41C66.1433 36.27 66.2133 36.2 66.3533 36.2H69.5033C69.6433 36.2 69.7133 36.27 69.7133 36.41V45.79ZM78.1833 40.82V38.51C78.1833 37.7167 77.7866 37.32 76.9933 37.32H74.7533C73.9599 37.32 73.5633 37.7213 73.5633 38.524V39.616C73.5633 40.4187 73.9599 40.82 74.7533 40.82H78.1833ZM78.1833 42.08H74.7533C73.0733 42.08 72.2333 41.2633 72.2333 39.63V38.51C72.2333 36.8767 73.0733 36.06 74.7533 36.06H76.9933C78.6733 36.06 79.5133 36.8767 79.5133 38.51V43.69C79.5133 45.3233 78.6733 46.14 76.9933 46.14H75.0333C73.3533 46.14 72.5133 45.3233 72.5133 43.69V43.27C72.5133 43.13 72.5833 43.06 72.7233 43.06H73.6333C73.7733 43.06 73.8433 43.13 73.8433 43.27V43.69C73.8433 44.4833 74.2399 44.88 75.0333 44.88H76.9933C77.7866 44.88 78.1833 44.4833 78.1833 43.69V42.08ZM84.842 38.51C84.842 36.8767 85.682 36.06 87.362 36.06H90.582C92.262 36.06 93.102 36.8767 93.102 38.51V39.07C93.102 39.21 93.032 39.28 92.892 39.28H91.982C91.842 39.28 91.772 39.21 91.772 39.07V38.51C91.772 37.7167 91.3754 37.32 90.582 37.32H87.362C86.5687 37.32 86.172 37.7167 86.172 38.51V43.69C86.172 44.4833 86.5687 44.88 87.362 44.88H90.582C91.3754 44.88 91.772 44.4833 91.772 43.69V43.13C91.772 42.99 91.842 42.92 91.982 42.92H92.892C93.032 42.92 93.102 42.99 93.102 43.13V43.69C93.102 45.3233 92.262 46.14 90.582 46.14H87.362C85.682 46.14 84.842 45.3233 84.842 43.69V38.51ZM100.802 41.66C101.595 41.66 101.992 41.2633 101.992 40.47V38.65C101.992 37.8567 101.595 37.46 100.802 37.46H96.812V41.66H100.802ZM96.812 42.92V45.79C96.812 45.93 96.742 46 96.602 46H95.692C95.552 46 95.482 45.93 95.482 45.79V36.41C95.482 36.27 95.552 36.2 95.692 36.2H100.802C102.482 36.2 103.322 37.0167 103.322 38.65V40.47C103.322 42.1033 102.482 42.92 100.802 42.92H96.812ZM111.799 43.06C111.799 42.8173 111.729 42.626 111.589 42.486C111.458 42.3367 111.271 42.2247 111.029 42.15L106.829 40.82C106.409 40.6893 106.068 40.4793 105.807 40.19C105.555 39.8913 105.429 39.4947 105.429 39V38.51C105.429 36.8767 106.269 36.06 107.949 36.06H110.469C112.149 36.06 112.989 36.8767 112.989 38.51V39.07C112.989 39.21 112.919 39.28 112.779 39.28H111.869C111.729 39.28 111.659 39.21 111.659 39.07V38.51C111.659 37.7167 111.262 37.32 110.469 37.32H107.949C107.155 37.32 106.759 37.7167 106.759 38.51V38.86C106.759 39.1027 106.824 39.2987 106.955 39.448C107.095 39.588 107.286 39.6953 107.529 39.77L111.729 41.1C112.149 41.2307 112.485 41.4453 112.737 41.744C112.998 42.0333 113.129 42.4253 113.129 42.92V43.69C113.129 45.3233 112.289 46.14 110.609 46.14H107.809C106.129 46.14 105.289 45.3233 105.289 43.69V43.13C105.289 42.99 105.359 42.92 105.499 42.92H106.409C106.549 42.92 106.619 42.99 106.619 43.13V43.69C106.619 44.4833 107.015 44.88 107.809 44.88H110.609C111.402 44.88 111.799 44.4833 111.799 43.69V43.06ZM37.72 57.66C38.5133 57.66 38.91 57.2633 38.91 56.47V54.65C38.91 53.8567 38.5133 53.46 37.72 53.46H33.73V57.66H37.72ZM33.73 58.92V61.79C33.73 61.93 33.66 62 33.52 62H32.61C32.47 62 32.4 61.93 32.4 61.79V52.41C32.4 52.27 32.47 52.2 32.61 52.2H37.72C39.4 52.2 40.24 53.0167 40.24 54.65V56.47C40.24 58.1033 39.4 58.92 37.72 58.92H33.73ZM41.7931 59.83C41.7931 58.4767 42.4931 57.8 43.8931 57.8H46.4831V56.89C46.4831 56.5727 46.3851 56.3207 46.1891 56.134C46.0025 55.938 45.7505 55.84 45.4331 55.84H44.4531C44.1358 55.84 43.8791 55.938 43.6831 56.134C43.4965 56.3207 43.4031 56.5727 43.4031 56.89C43.4031 57.03 43.3331 57.1 43.1931 57.1H42.4231C42.2831 57.1 42.2131 57.03 42.2131 56.89C42.2131 56.19 42.3998 55.6533 42.7731 55.28C43.1558 54.9067 43.7158 54.72 44.4531 54.72H45.4331C46.1705 54.72 46.7258 54.9067 47.0991 55.28C47.4818 55.6533 47.6731 56.19 47.6731 56.89V61.79C47.6731 61.93 47.6031 62 47.4631 62H46.6931C46.5531 62 46.4831 61.93 46.4831 61.79V61.3H46.4131C46.3385 61.4587 46.2311 61.5987 46.0911 61.72C45.9698 61.8227 45.8111 61.916 45.6151 62C45.4191 62.0933 45.1718 62.14 44.8731 62.14H43.8931C42.4931 62.14 41.7931 61.4633 41.7931 60.11V59.83ZM42.9831 60.11C42.9831 60.39 43.0625 60.614 43.2211 60.782C43.3891 60.9407 43.6131 61.02 43.8931 61.02H45.0131C45.4331 61.02 45.7831 60.88 46.0631 60.6C46.3431 60.32 46.4831 59.97 46.4831 59.55V58.92H43.8931C43.6131 58.92 43.3891 59.004 43.2211 59.172C43.0625 59.3307 42.9831 59.55 42.9831 59.83V60.11ZM51.7271 62.14C50.9898 62.14 50.4298 61.9533 50.0471 61.58C49.6738 61.2067 49.4871 60.67 49.4871 59.97V59.62C49.4871 59.48 49.5571 59.41 49.6971 59.41H50.4671C50.6071 59.41 50.6771 59.48 50.6771 59.62V59.97C50.6771 60.2873 50.7704 60.544 50.9571 60.74C51.1531 60.9267 51.4098 61.02 51.7271 61.02H53.5471C53.8271 61.02 54.0464 60.9407 54.2051 60.782C54.3731 60.614 54.4571 60.39 54.4571 60.11V59.83C54.4571 59.55 54.3731 59.3307 54.2051 59.172C54.0464 59.004 53.8271 58.92 53.5471 58.92H52.3571C52.2171 58.92 52.1471 58.85 52.1471 58.71V58.01C52.1471 57.87 52.2171 57.8 52.3571 57.8H53.4071C53.6871 57.8 53.9064 57.7207 54.0651 57.562C54.2331 57.394 54.3171 57.17 54.3171 56.89V56.75C54.3171 56.47 54.2331 56.2507 54.0651 56.092C53.9064 55.924 53.6871 55.84 53.4071 55.84H51.8671C51.5498 55.84 51.2931 55.938 51.0971 56.134C50.9104 56.3207 50.8171 56.5727 50.8171 56.89V57.24C50.8171 57.38 50.7471 57.45 50.6071 57.45H49.8371C49.6971 57.45 49.6271 57.38 49.6271 57.24V56.89C49.6271 56.19 49.8138 55.6533 50.1871 55.28C50.5698 54.9067 51.1298 54.72 51.8671 54.72H53.4071C54.8071 54.72 55.5071 55.3967 55.5071 56.75V56.89C55.5071 57.17 55.4511 57.3987 55.3391 57.576C55.2271 57.744 55.1058 57.8793 54.9751 57.982C54.8164 58.094 54.6438 58.1733 54.4571 58.22V58.29C54.6811 58.3367 54.8771 58.4253 55.0451 58.556C55.1944 58.668 55.3298 58.8267 55.4511 59.032C55.5818 59.2373 55.6471 59.5033 55.6471 59.83V60.11C55.6471 61.4633 54.9471 62.14 53.5471 62.14H51.7271ZM61.4544 60.88C61.7717 60.88 62.0237 60.7867 62.2104 60.6C62.4064 60.404 62.5044 60.1473 62.5044 59.83V56.89C62.5044 56.5727 62.4064 56.3207 62.2104 56.134C62.0237 55.938 61.7717 55.84 61.4544 55.84H60.2644C59.8444 55.84 59.4944 55.98 59.2144 56.26C58.9344 56.54 58.7944 56.89 58.7944 57.31V60.88H61.4544ZM58.7944 62V64.45C58.7944 64.59 58.7244 64.66 58.5844 64.66H57.8144C57.6744 64.66 57.6044 64.59 57.6044 64.45V55.07C57.6044 54.93 57.6744 54.86 57.8144 54.86H58.5844C58.7244 54.86 58.7944 54.93 58.7944 55.07V55.56H58.8644C58.939 55.4013 59.0464 55.2613 59.1864 55.14C59.3077 55.0373 59.4664 54.944 59.6624 54.86C59.8584 54.7667 60.1057 54.72 60.4044 54.72H61.4544C62.1917 54.72 62.747 54.9067 63.1204 55.28C63.503 55.6533 63.6944 56.19 63.6944 56.89V59.83C63.6944 60.53 63.503 61.0667 63.1204 61.44C62.747 61.8133 62.1917 62 61.4544 62H58.7944ZM65.5138 59.83C65.5138 58.4767 66.2138 57.8 67.6138 57.8H70.2038V56.89C70.2038 56.5727 70.1058 56.3207 69.9098 56.134C69.7232 55.938 69.4712 55.84 69.1538 55.84H68.1738C67.8565 55.84 67.5998 55.938 67.4038 56.134C67.2172 56.3207 67.1238 56.5727 67.1238 56.89C67.1238 57.03 67.0538 57.1 66.9138 57.1H66.1438C66.0038 57.1 65.9338 57.03 65.9338 56.89C65.9338 56.19 66.1205 55.6533 66.4938 55.28C66.8765 54.9067 67.4365 54.72 68.1738 54.72H69.1538C69.8912 54.72 70.4465 54.9067 70.8198 55.28C71.2025 55.6533 71.3938 56.19 71.3938 56.89V61.79C71.3938 61.93 71.3238 62 71.1838 62H70.4138C70.2738 62 70.2038 61.93 70.2038 61.79V61.3H70.1338C70.0592 61.4587 69.9518 61.5987 69.8118 61.72C69.6905 61.8227 69.5318 61.916 69.3358 62C69.1398 62.0933 68.8925 62.14 68.5938 62.14H67.6138C66.2138 62.14 65.5138 61.4633 65.5138 60.11V59.83ZM66.7038 60.11C66.7038 60.39 66.7832 60.614 66.9418 60.782C67.1098 60.9407 67.3338 61.02 67.6138 61.02H68.7338C69.1538 61.02 69.5038 60.88 69.7838 60.6C70.0638 60.32 70.2038 59.97 70.2038 59.55V58.92H67.6138C67.3338 58.92 67.1098 59.004 66.9418 59.172C66.7832 59.3307 66.7038 59.55 66.7038 59.83V60.11ZM74.6778 59.97C74.6778 60.2873 74.7711 60.544 74.9578 60.74C75.1538 60.9267 75.4105 61.02 75.7278 61.02H77.2678C77.5851 61.02 77.8371 60.9267 78.0238 60.74C78.2198 60.544 78.3178 60.2873 78.3178 59.97V58.15C78.3178 57.8327 78.2198 57.5807 78.0238 57.394C77.8371 57.198 77.5851 57.1 77.2678 57.1H74.6778V59.97ZM73.4878 55.42C73.4878 54.0107 74.2345 53.2407 75.7278 53.11L77.4078 52.97C77.6225 52.9513 77.7811 52.886 77.8838 52.774C77.9865 52.662 78.0378 52.5173 78.0378 52.34V52.27C78.0378 52.13 78.1078 52.06 78.2478 52.06H79.0178C79.1578 52.06 79.2278 52.13 79.2278 52.27V52.34C79.2278 52.9373 79.0831 53.3807 78.7938 53.67C78.5045 53.95 78.0425 54.1133 77.4078 54.16L75.7278 54.3C75.4105 54.328 75.1538 54.4447 74.9578 54.65C74.7711 54.846 74.6778 55.1027 74.6778 55.42V55.98H77.2678C78.0051 55.98 78.5605 56.1667 78.9338 56.54C79.3165 56.9133 79.5078 57.45 79.5078 58.15V59.97C79.5078 60.67 79.3165 61.2067 78.9338 61.58C78.5605 61.9533 78.0051 62.14 77.2678 62.14H75.7278C74.9905 62.14 74.4305 61.9533 74.0478 61.58C73.6745 61.2067 73.4878 60.67 73.4878 59.97V55.42ZM86.3618 56.89C86.3618 56.5727 86.2638 56.3207 86.0678 56.134C85.8811 55.938 85.6291 55.84 85.3118 55.84H83.5618C83.2445 55.84 82.9878 55.938 82.7918 56.134C82.6051 56.3207 82.5118 56.5727 82.5118 56.89V59.97C82.5118 60.2873 82.6051 60.544 82.7918 60.74C82.9878 60.9267 83.2445 61.02 83.5618 61.02H85.3118C85.6291 61.02 85.8811 60.9267 86.0678 60.74C86.2638 60.544 86.3618 60.2873 86.3618 59.97V56.89ZM87.5518 59.97C87.5518 60.67 87.3605 61.2067 86.9778 61.58C86.6045 61.9533 86.0491 62.14 85.3118 62.14H83.5618C82.8245 62.14 82.2645 61.9533 81.8818 61.58C81.5085 61.2067 81.3218 60.67 81.3218 59.97V56.89C81.3218 56.19 81.5085 55.6533 81.8818 55.28C82.2645 54.9067 82.8245 54.72 83.5618 54.72H85.3118C86.0491 54.72 86.6045 54.9067 86.9778 55.28C87.3605 55.6533 87.5518 56.19 87.5518 56.89V59.97ZM91.2613 62C91.1213 62 91.0513 61.93 91.0513 61.79V55.98H88.8813C88.7413 55.98 88.6713 55.91 88.6713 55.77V55.07C88.6713 54.93 88.7413 54.86 88.8813 54.86H94.4113C94.5513 54.86 94.6213 54.93 94.6213 55.07V55.77C94.6213 55.91 94.5513 55.98 94.4113 55.98H92.2413V61.79C92.2413 61.93 92.1713 62 92.0312 62H91.2613ZM95.6056 59.83C95.6056 58.4767 96.3056 57.8 97.7056 57.8H100.296V56.89C100.296 56.5727 100.198 56.3207 100.002 56.134C99.815 55.938 99.563 55.84 99.2456 55.84H98.2656C97.9483 55.84 97.6916 55.938 97.4956 56.134C97.309 56.3207 97.2156 56.5727 97.2156 56.89C97.2156 57.03 97.1456 57.1 97.0056 57.1H96.2356C96.0956 57.1 96.0256 57.03 96.0256 56.89C96.0256 56.19 96.2123 55.6533 96.5856 55.28C96.9683 54.9067 97.5283 54.72 98.2656 54.72H99.2456C99.983 54.72 100.538 54.9067 100.912 55.28C101.294 55.6533 101.486 56.19 101.486 56.89V61.79C101.486 61.93 101.416 62 101.276 62H100.506C100.366 62 100.296 61.93 100.296 61.79V61.3H100.226C100.151 61.4587 100.044 61.5987 99.9036 61.72C99.7823 61.8227 99.6236 61.916 99.4276 62C99.2316 62.0933 98.9843 62.14 98.6856 62.14H97.7056C96.3056 62.14 95.6056 61.4633 95.6056 60.11V59.83ZM96.7956 60.11C96.7956 60.39 96.875 60.614 97.0336 60.782C97.2016 60.9407 97.4256 61.02 97.7056 61.02H98.8256C99.2456 61.02 99.5956 60.88 99.8756 60.6C100.156 60.32 100.296 59.97 100.296 59.55V58.92H97.7056C97.4256 58.92 97.2016 59.004 97.0336 59.172C96.875 59.3307 96.7956 59.55 96.7956 59.83V60.11ZM104.91 58.92V61.79C104.91 61.93 104.84 62 104.7 62H103.93C103.79 62 103.72 61.93 103.72 61.79V55.07C103.72 54.93 103.79 54.86 103.93 54.86H104.7C104.84 54.86 104.91 54.93 104.91 55.07V57.87H108.48V55.07C108.48 54.93 108.55 54.86 108.69 54.86H109.46C109.6 54.86 109.67 54.93 109.67 55.07V61.79C109.67 61.93 109.6 62 109.46 62H108.69C108.55 62 108.48 61.93 108.48 61.79V58.92H104.91ZM116.809 56.89C116.809 56.5727 116.711 56.3207 116.515 56.134C116.328 55.938 116.076 55.84 115.759 55.84H114.009C113.692 55.84 113.435 55.938 113.239 56.134C113.052 56.3207 112.959 56.5727 112.959 56.89V59.97C112.959 60.2873 113.052 60.544 113.239 60.74C113.435 60.9267 113.692 61.02 114.009 61.02H115.759C116.076 61.02 116.328 60.9267 116.515 60.74C116.711 60.544 116.809 60.2873 116.809 59.97V56.89ZM117.999 59.97C117.999 60.67 117.808 61.2067 117.425 61.58C117.052 61.9533 116.496 62.14 115.759 62.14H114.009C113.272 62.14 112.712 61.9533 112.329 61.58C111.956 61.2067 111.769 60.67 111.769 59.97V56.89C111.769 56.19 111.956 55.6533 112.329 55.28C112.712 54.9067 113.272 54.72 114.009 54.72H115.759C116.496 54.72 117.052 54.9067 117.425 55.28C117.808 55.6533 117.999 56.19 117.999 56.89V59.97ZM125.841 58.78H124.091V61.79C124.091 61.93 124.021 62 123.881 62H123.111C122.971 62 122.901 61.93 122.901 61.79V55.07C122.901 54.93 122.971 54.86 123.111 54.86H123.881C124.021 54.86 124.091 54.93 124.091 55.07V57.66H125.841L127.241 55.07C127.279 54.9953 127.321 54.944 127.367 54.916C127.414 54.8787 127.489 54.86 127.591 54.86H128.431C128.59 54.86 128.637 54.93 128.571 55.07L126.821 58.22L128.781 61.79C128.847 61.93 128.8 62 128.641 62H127.801C127.699 62 127.624 61.986 127.577 61.958C127.531 61.9207 127.489 61.8647 127.451 61.79L125.841 58.78ZM134.979 56.89C134.979 56.5727 134.881 56.3207 134.685 56.134C134.498 55.938 134.246 55.84 133.929 55.84H132.179C131.862 55.84 131.605 55.938 131.409 56.134C131.222 56.3207 131.129 56.5727 131.129 56.89V59.97C131.129 60.2873 131.222 60.544 131.409 60.74C131.605 60.9267 131.862 61.02 132.179 61.02H133.929C134.246 61.02 134.498 60.9267 134.685 60.74C134.881 60.544 134.979 60.2873 134.979 59.97V56.89ZM136.169 59.97C136.169 60.67 135.978 61.2067 135.595 61.58C135.222 61.9533 134.666 62.14 133.929 62.14H132.179C131.442 62.14 130.882 61.9533 130.499 61.58C130.126 61.2067 129.939 60.67 129.939 59.97V56.89C129.939 56.19 130.126 55.6533 130.499 55.28C130.882 54.9067 131.442 54.72 132.179 54.72H133.929C134.666 54.72 135.222 54.9067 135.595 55.28C135.978 55.6533 136.169 56.19 136.169 56.89V59.97ZM142.328 60.46L144.848 55.07C144.886 54.9953 144.928 54.944 144.974 54.916C145.03 54.8787 145.128 54.86 145.268 54.86H146.108C146.248 54.86 146.318 54.93 146.318 55.07V61.79C146.318 61.93 146.248 62 146.108 62H145.338C145.198 62 145.128 61.93 145.128 61.79V57.17H145.058L142.888 61.79C142.851 61.8647 142.804 61.9207 142.748 61.958C142.702 61.986 142.608 62 142.468 62H142.118C141.978 62 141.88 61.986 141.824 61.958C141.778 61.9207 141.736 61.8647 141.698 61.79L139.528 57.17H139.458V61.79C139.458 61.93 139.388 62 139.248 62H138.478C138.338 62 138.268 61.93 138.268 61.79V55.07C138.268 54.93 138.338 54.86 138.478 54.86H139.318C139.458 54.86 139.552 54.8787 139.598 54.916C139.654 54.944 139.701 54.9953 139.738 55.07L142.258 60.46H142.328ZM148.283 59.83C148.283 58.4767 148.983 57.8 150.383 57.8H152.973V56.89C152.973 56.5727 152.875 56.3207 152.679 56.134C152.493 55.938 152.241 55.84 151.923 55.84H150.943C150.626 55.84 150.369 55.938 150.173 56.134C149.987 56.3207 149.893 56.5727 149.893 56.89C149.893 57.03 149.823 57.1 149.683 57.1H148.913C148.773 57.1 148.703 57.03 148.703 56.89C148.703 56.19 148.89 55.6533 149.263 55.28C149.646 54.9067 150.206 54.72 150.943 54.72H151.923C152.661 54.72 153.216 54.9067 153.589 55.28C153.972 55.6533 154.163 56.19 154.163 56.89V61.79C154.163 61.93 154.093 62 153.953 62H153.183C153.043 62 152.973 61.93 152.973 61.79V61.3H152.903C152.829 61.4587 152.721 61.5987 152.581 61.72C152.46 61.8227 152.301 61.916 152.105 62C151.909 62.0933 151.662 62.14 151.363 62.14H150.383C148.983 62.14 148.283 61.4633 148.283 60.11V59.83ZM149.473 60.11C149.473 60.39 149.553 60.614 149.711 60.782C149.879 60.9407 150.103 61.02 150.383 61.02H151.503C151.923 61.02 152.273 60.88 152.553 60.6C152.833 60.32 152.973 59.97 152.973 59.55V58.92H150.383C150.103 58.92 149.879 59.004 149.711 59.172C149.553 59.3307 149.473 59.55 149.473 59.83V60.11ZM157.587 58.92V61.79C157.587 61.93 157.517 62 157.377 62H156.607C156.467 62 156.397 61.93 156.397 61.79V55.07C156.397 54.93 156.467 54.86 156.607 54.86H157.377C157.517 54.86 157.587 54.93 157.587 55.07V57.87H161.157V55.07C161.157 54.93 161.227 54.86 161.367 54.86H162.137C162.277 54.86 162.347 54.93 162.347 55.07V61.79C162.347 61.93 162.277 62 162.137 62H161.367C161.227 62 161.157 61.93 161.157 61.79V58.92H157.587ZM168.787 55.98H166.477L165.497 60.88H168.787V55.98ZM169.977 60.88H170.677C170.817 60.88 170.887 60.95 170.887 61.09V63.33C170.887 63.47 170.817 63.54 170.677 63.54H169.907C169.767 63.54 169.697 63.47 169.697 63.33V62H164.657V63.33C164.657 63.47 164.587 63.54 164.447 63.54H163.677C163.537 63.54 163.467 63.47 163.467 63.33V61.09C163.467 60.95 163.537 60.88 163.677 60.88H164.307L165.497 55.07C165.525 54.93 165.641 54.86 165.847 54.86H169.767C169.907 54.86 169.977 54.93 169.977 55.07V60.88ZM177.321 56.89C177.321 56.5727 177.223 56.3207 177.027 56.134C176.84 55.938 176.588 55.84 176.271 55.84H174.521C174.203 55.84 173.947 55.938 173.751 56.134C173.564 56.3207 173.471 56.5727 173.471 56.89V59.97C173.471 60.2873 173.564 60.544 173.751 60.74C173.947 60.9267 174.203 61.02 174.521 61.02H176.271C176.588 61.02 176.84 60.9267 177.027 60.74C177.223 60.544 177.321 60.2873 177.321 59.97V56.89ZM178.511 59.97C178.511 60.67 178.319 61.2067 177.937 61.58C177.563 61.9533 177.008 62.14 176.271 62.14H174.521C173.783 62.14 173.223 61.9533 172.841 61.58C172.467 61.2067 172.281 60.67 172.281 59.97V56.89C172.281 56.19 172.467 55.6533 172.841 55.28C173.223 54.9067 173.783 54.72 174.521 54.72H176.271C177.008 54.72 177.563 54.9067 177.937 55.28C178.319 55.6533 178.511 56.19 178.511 56.89V59.97ZM183.27 53.74C182.738 53.74 182.337 53.6093 182.066 53.348C181.796 53.0773 181.66 52.6947 181.66 52.2V51.85C181.66 51.71 181.73 51.64 181.87 51.64H182.5C182.64 51.64 182.71 51.71 182.71 51.85V52.2C182.71 52.5733 182.897 52.76 183.27 52.76H184.04C184.414 52.76 184.6 52.5733 184.6 52.2V51.85C184.6 51.71 184.67 51.64 184.81 51.64H185.44C185.58 51.64 185.65 51.71 185.65 51.85V52.2C185.65 52.6947 185.515 53.0773 185.244 53.348C184.974 53.6093 184.572 53.74 184.04 53.74H183.27ZM186.49 54.86C186.63 54.86 186.7 54.93 186.7 55.07V61.79C186.7 61.93 186.63 62 186.49 62H185.72C185.58 62 185.51 61.93 185.51 61.79V56.68H185.44L182.08 61.79C182.034 61.8647 181.987 61.9207 181.94 61.958C181.894 61.986 181.8 62 181.66 62H180.82C180.68 62 180.61 61.93 180.61 61.79V55.07C180.61 54.93 180.68 54.86 180.82 54.86H181.59C181.73 54.86 181.8 54.93 181.8 55.07V60.18H181.87L185.23 55.07C185.277 54.9953 185.324 54.944 185.37 54.916C185.417 54.8787 185.51 54.86 185.65 54.86H186.49ZM196.947 58.22L195.295 53.74H195.239L193.587 58.22H196.947ZM193.097 59.48L192.257 61.79C192.229 61.8647 192.187 61.9207 192.131 61.958C192.084 61.986 192.01 62 191.907 62H190.927C190.778 62 190.731 61.93 190.787 61.79L194.427 52.41C194.464 52.3353 194.506 52.284 194.553 52.256C194.6 52.2187 194.674 52.2 194.777 52.2H195.757C195.86 52.2 195.934 52.2187 195.981 52.256C196.028 52.284 196.07 52.3353 196.107 52.41L199.747 61.79C199.803 61.93 199.756 62 199.607 62H198.627C198.524 62 198.445 61.986 198.389 61.958C198.342 61.9207 198.305 61.8647 198.277 61.79L197.437 59.48H193.097ZM204.886 60.88C205.203 60.88 205.455 60.7867 205.642 60.6C205.838 60.404 205.936 60.1473 205.936 59.83V56.89C205.936 56.5727 205.838 56.3207 205.642 56.134C205.455 55.938 205.203 55.84 204.886 55.84H203.696C203.276 55.84 202.926 55.98 202.646 56.26C202.366 56.54 202.226 56.89 202.226 57.31V60.88H204.886ZM202.226 62V64.45C202.226 64.59 202.156 64.66 202.016 64.66H201.246C201.106 64.66 201.036 64.59 201.036 64.45V55.07C201.036 54.93 201.106 54.86 201.246 54.86H202.016C202.156 54.86 202.226 54.93 202.226 55.07V55.56H202.296C202.371 55.4013 202.478 55.2613 202.618 55.14C202.739 55.0373 202.898 54.944 203.094 54.86C203.29 54.7667 203.537 54.72 203.836 54.72H204.886C205.623 54.72 206.179 54.9067 206.552 55.28C206.935 55.6533 207.126 56.19 207.126 56.89V59.83C207.126 60.53 206.935 61.0667 206.552 61.44C206.179 61.8133 205.623 62 204.886 62H202.226ZM214.055 57.8V56.89C214.055 56.5727 213.957 56.3207 213.761 56.134C213.575 55.938 213.323 55.84 213.005 55.84H211.325C211.008 55.84 210.751 55.938 210.555 56.134C210.369 56.3207 210.275 56.5727 210.275 56.89V57.8H214.055ZM210.275 58.92V59.97C210.275 60.2873 210.369 60.544 210.555 60.74C210.751 60.9267 211.008 61.02 211.325 61.02H213.005C213.323 61.02 213.575 60.9267 213.761 60.74C213.957 60.544 214.055 60.2873 214.055 59.97V59.9C214.055 59.76 214.125 59.69 214.265 59.69H215.035C215.175 59.69 215.245 59.76 215.245 59.9V59.97C215.245 60.67 215.054 61.2067 214.671 61.58C214.298 61.9533 213.743 62.14 213.005 62.14H211.325C210.588 62.14 210.028 61.9533 209.645 61.58C209.272 61.2067 209.085 60.67 209.085 59.97V56.89C209.085 56.19 209.272 55.6533 209.645 55.28C210.028 54.9067 210.588 54.72 211.325 54.72H213.005C213.743 54.72 214.298 54.9067 214.671 55.28C215.054 55.6533 215.245 56.19 215.245 56.89V58.71C215.245 58.85 215.175 58.92 215.035 58.92H210.275ZM217.067 56.75C217.067 55.3967 217.767 54.72 219.167 54.72H220.567C221.304 54.72 221.859 54.9067 222.233 55.28C222.615 55.6533 222.807 56.19 222.807 56.89V57.03C222.807 57.17 222.737 57.24 222.597 57.24H221.827C221.687 57.24 221.617 57.17 221.617 57.03V56.89C221.617 56.5727 221.519 56.3207 221.323 56.134C221.136 55.938 220.884 55.84 220.567 55.84H219.167C218.887 55.84 218.663 55.924 218.495 56.092C218.336 56.2507 218.257 56.47 218.257 56.75V56.82C218.257 56.96 218.303 57.0767 218.397 57.17C218.49 57.2633 218.607 57.3333 218.747 57.38L221.827 58.36C222.144 58.4627 222.41 58.64 222.625 58.892C222.839 59.144 222.947 59.48 222.947 59.9V60.11C222.947 61.4633 222.247 62.14 220.847 62.14H219.167C218.429 62.14 217.869 61.9533 217.487 61.58C217.113 61.2067 216.927 60.67 216.927 59.97V59.83C216.927 59.69 216.997 59.62 217.137 59.62H217.907C218.047 59.62 218.117 59.69 218.117 59.83V59.97C218.117 60.2873 218.21 60.544 218.397 60.74C218.593 60.9267 218.849 61.02 219.167 61.02H220.847C221.127 61.02 221.346 60.9407 221.505 60.782C221.673 60.614 221.757 60.39 221.757 60.11V59.97C221.757 59.83 221.71 59.7133 221.617 59.62C221.523 59.5267 221.407 59.4567 221.267 59.41L218.187 58.43C217.869 58.3273 217.603 58.15 217.389 57.898C217.174 57.646 217.067 57.31 217.067 56.89V56.75ZM229.807 56.89C229.807 56.5727 229.709 56.3207 229.513 56.134C229.326 55.938 229.074 55.84 228.757 55.84H227.007C226.69 55.84 226.433 55.938 226.237 56.134C226.05 56.3207 225.957 56.5727 225.957 56.89V59.97C225.957 60.2873 226.05 60.544 226.237 60.74C226.433 60.9267 226.69 61.02 227.007 61.02H228.757C229.074 61.02 229.326 60.9267 229.513 60.74C229.709 60.544 229.807 60.2873 229.807 59.97V56.89ZM230.997 59.97C230.997 60.67 230.806 61.2067 230.423 61.58C230.05 61.9533 229.494 62.14 228.757 62.14H227.007C226.27 62.14 225.71 61.9533 225.327 61.58C224.954 61.2067 224.767 60.67 224.767 59.97V56.89C224.767 56.19 224.954 55.6533 225.327 55.28C225.71 54.9067 226.27 54.72 227.007 54.72H228.757C229.494 54.72 230.05 54.9067 230.423 55.28C230.806 55.6533 230.997 56.19 230.997 56.89V59.97ZM236.947 54.72C237.684 54.72 238.239 54.9067 238.613 55.28C238.995 55.6533 239.187 56.19 239.187 56.89V61.79C239.187 61.93 239.117 62 238.977 62H238.207C238.067 62 237.997 61.93 237.997 61.79V56.89C237.997 56.5727 237.899 56.3207 237.703 56.134C237.516 55.938 237.264 55.84 236.947 55.84H235.757C235.337 55.84 234.987 55.98 234.707 56.26C234.427 56.54 234.287 56.89 234.287 57.31V61.79C234.287 61.93 234.217 62 234.077 62H233.307C233.167 62 233.097 61.93 233.097 61.79V55.07C233.097 54.93 233.167 54.86 233.307 54.86H234.077C234.217 54.86 234.287 54.93 234.287 55.07V55.56H234.357C234.431 55.4013 234.539 55.2613 234.679 55.14C234.8 55.0373 234.959 54.944 235.155 54.86C235.351 54.7667 235.598 54.72 235.897 54.72H236.947ZM243.523 61.44C242.785 61.44 242.225 61.2533 241.843 60.88C241.469 60.5067 241.283 59.97 241.283 59.27V56.89C241.283 56.19 241.469 55.6533 241.843 55.28C242.225 54.9067 242.785 54.72 243.523 54.72H244.573C244.871 54.72 245.119 54.7667 245.315 54.86C245.511 54.944 245.669 55.0373 245.791 55.14C245.931 55.2613 246.038 55.4013 246.113 55.56H246.183V55.07C246.183 54.93 246.253 54.86 246.393 54.86H247.163C247.303 54.86 247.373 54.93 247.373 55.07V62.63C247.373 63.33 247.181 63.8667 246.799 64.24C246.425 64.6133 245.87 64.8 245.133 64.8H243.663C242.925 64.8 242.365 64.6133 241.983 64.24C241.609 63.8667 241.423 63.33 241.423 62.63V62.42C241.423 62.28 241.493 62.21 241.633 62.21H242.403C242.543 62.21 242.613 62.28 242.613 62.42V62.63C242.613 62.9473 242.706 63.1993 242.893 63.386C243.089 63.582 243.345 63.68 243.663 63.68H245.133C245.45 63.68 245.702 63.582 245.889 63.386C246.085 63.1993 246.183 62.9473 246.183 62.63V61.44H243.523ZM246.183 60.32V57.31C246.183 56.89 246.043 56.54 245.763 56.26C245.483 55.98 245.133 55.84 244.713 55.84H243.523C243.205 55.84 242.949 55.938 242.753 56.134C242.566 56.3207 242.473 56.5727 242.473 56.89V59.27C242.473 59.5873 242.566 59.844 242.753 60.04C242.949 60.2267 243.205 60.32 243.523 60.32H246.183Z" fill="#7E7E82"/>
<path opacity="0.721842" d="M770.906 36.2C771.046 36.2 771.116 36.27 771.116 36.41V45.79C771.116 45.93 771.046 46 770.906 46H769.996C769.856 46 769.786 45.93 769.786 45.79V38.23H769.716L764.676 45.79C764.592 45.93 764.452 46 764.256 46H763.206C763.066 46 762.996 45.93 762.996 45.79V36.41C762.996 36.27 763.066 36.2 763.206 36.2H764.116C764.256 36.2 764.326 36.27 764.326 36.41V43.97H764.396L769.436 36.41C769.52 36.27 769.66 36.2 769.856 36.2H770.906ZM774.83 42.92V45.79C774.83 45.93 774.76 46 774.62 46H773.85C773.71 46 773.64 45.93 773.64 45.79V39.07C773.64 38.93 773.71 38.86 773.85 38.86H774.62C774.76 38.86 774.83 38.93 774.83 39.07V41.87H778.4V39.07C778.4 38.93 778.47 38.86 778.61 38.86H779.38C779.52 38.86 779.59 38.93 779.59 39.07V45.79C779.59 45.93 779.52 46 779.38 46H778.61C778.47 46 778.4 45.93 778.4 45.79V42.92H774.83ZM785.399 38.86V36.41C785.399 36.27 785.469 36.2 785.609 36.2H786.379C786.519 36.2 786.589 36.27 786.589 36.41V38.86H788.059C788.796 38.86 789.352 39.0467 789.725 39.42C790.108 39.7933 790.299 40.33 790.299 41.03V43.83C790.299 44.53 790.108 45.0667 789.725 45.44C789.352 45.8133 788.796 46 788.059 46H786.589V48.45C786.589 48.59 786.519 48.66 786.379 48.66H785.609C785.469 48.66 785.399 48.59 785.399 48.45V46H783.929C783.192 46 782.632 45.8133 782.249 45.44C781.876 45.0667 781.689 44.53 781.689 43.83V41.03C781.689 40.33 781.876 39.7933 782.249 39.42C782.632 39.0467 783.192 38.86 783.929 38.86H785.399ZM783.929 39.98C783.612 39.98 783.355 40.078 783.159 40.274C782.972 40.4607 782.879 40.7127 782.879 41.03V43.83C782.879 44.1473 782.972 44.404 783.159 44.6C783.355 44.7867 783.612 44.88 783.929 44.88H785.399V39.98H783.929ZM788.059 44.88C788.376 44.88 788.628 44.7867 788.815 44.6C789.011 44.404 789.109 44.1473 789.109 43.83V41.03C789.109 40.7127 789.011 40.4607 788.815 40.274C788.628 40.078 788.376 39.98 788.059 39.98H786.589V44.88H788.059ZM797.297 40.89C797.297 40.5727 797.199 40.3207 797.003 40.134C796.817 39.938 796.565 39.84 796.247 39.84H794.497C794.18 39.84 793.923 39.938 793.727 40.134C793.541 40.3207 793.447 40.5727 793.447 40.89V43.97C793.447 44.2873 793.541 44.544 793.727 44.74C793.923 44.9267 794.18 45.02 794.497 45.02H796.247C796.565 45.02 796.817 44.9267 797.003 44.74C797.199 44.544 797.297 44.2873 797.297 43.97V40.89ZM798.487 43.97C798.487 44.67 798.296 45.2067 797.913 45.58C797.54 45.9533 796.985 46.14 796.247 46.14H794.497C793.76 46.14 793.2 45.9533 792.817 45.58C792.444 45.2067 792.257 44.67 792.257 43.97V40.89C792.257 40.19 792.444 39.6533 792.817 39.28C793.2 38.9067 793.76 38.72 794.497 38.72H796.247C796.985 38.72 797.54 38.9067 797.913 39.28C798.296 39.6533 798.487 40.19 798.487 40.89V43.97ZM804.437 44.88C804.754 44.88 805.006 44.7867 805.193 44.6C805.389 44.404 805.487 44.1473 805.487 43.83V40.89C805.487 40.5727 805.389 40.3207 805.193 40.134C805.006 39.938 804.754 39.84 804.437 39.84H803.247C802.827 39.84 802.477 39.98 802.197 40.26C801.917 40.54 801.777 40.89 801.777 41.31V44.88H804.437ZM801.777 46V48.45C801.777 48.59 801.707 48.66 801.567 48.66H800.797C800.657 48.66 800.587 48.59 800.587 48.45V39.07C800.587 38.93 800.657 38.86 800.797 38.86H801.567C801.707 38.86 801.777 38.93 801.777 39.07V39.56H801.847C801.921 39.4013 802.029 39.2613 802.169 39.14C802.29 39.0373 802.449 38.944 802.645 38.86C802.841 38.7667 803.088 38.72 803.387 38.72H804.437C805.174 38.72 805.729 38.9067 806.103 39.28C806.485 39.6533 806.677 40.19 806.677 40.89V43.83C806.677 44.53 806.485 45.0667 806.103 45.44C805.729 45.8133 805.174 46 804.437 46H801.777ZM812.836 44.46L815.356 39.07C815.394 38.9953 815.436 38.944 815.482 38.916C815.538 38.8787 815.636 38.86 815.776 38.86H816.616C816.756 38.86 816.826 38.93 816.826 39.07V45.79C816.826 45.93 816.756 46 816.616 46H815.846C815.706 46 815.636 45.93 815.636 45.79V41.17H815.566L813.396 45.79C813.359 45.8647 813.312 45.9207 813.256 45.958C813.21 45.986 813.116 46 812.976 46H812.626C812.486 46 812.388 45.986 812.332 45.958C812.286 45.9207 812.244 45.8647 812.206 45.79L810.036 41.17H809.966V45.79C809.966 45.93 809.896 46 809.756 46H808.986C808.846 46 808.776 45.93 808.776 45.79V39.07C808.776 38.93 808.846 38.86 808.986 38.86H809.826C809.966 38.86 810.06 38.8787 810.106 38.916C810.162 38.944 810.209 38.9953 810.246 39.07L812.766 44.46H812.836ZM818.791 43.83C818.791 42.4767 819.491 41.8 820.891 41.8H823.481V40.89C823.481 40.5727 823.383 40.3207 823.187 40.134C823.001 39.938 822.749 39.84 822.431 39.84H821.451C821.134 39.84 820.877 39.938 820.681 40.134C820.495 40.3207 820.401 40.5727 820.401 40.89C820.401 41.03 820.331 41.1 820.191 41.1H819.421C819.281 41.1 819.211 41.03 819.211 40.89C819.211 40.19 819.398 39.6533 819.771 39.28C820.154 38.9067 820.714 38.72 821.451 38.72H822.431C823.169 38.72 823.724 38.9067 824.097 39.28C824.48 39.6533 824.671 40.19 824.671 40.89V45.79C824.671 45.93 824.601 46 824.461 46H823.691C823.551 46 823.481 45.93 823.481 45.79V45.3H823.411C823.337 45.4587 823.229 45.5987 823.089 45.72C822.968 45.8227 822.809 45.916 822.613 46C822.417 46.0933 822.17 46.14 821.871 46.14H820.891C819.491 46.14 818.791 45.4633 818.791 44.11V43.83ZM819.981 44.11C819.981 44.39 820.061 44.614 820.219 44.782C820.387 44.9407 820.611 45.02 820.891 45.02H822.011C822.431 45.02 822.781 44.88 823.061 44.6C823.341 44.32 823.481 43.97 823.481 43.55V42.92H820.891C820.611 42.92 820.387 43.004 820.219 43.172C820.061 43.3307 819.981 43.55 819.981 43.83V44.11ZM827.115 46C826.975 46 826.905 45.93 826.905 45.79V39.07C826.905 38.93 826.975 38.86 827.115 38.86H827.885C828.025 38.86 828.095 38.93 828.095 39.07V44.88H831.525V39.07C831.525 38.93 831.595 38.86 831.735 38.86H832.505C832.645 38.86 832.715 38.93 832.715 39.07V45.09L833.975 46.49C834.012 46.5273 834.031 46.574 834.031 46.63C834.031 46.686 834.012 46.7327 833.975 46.77L833.345 47.33C833.242 47.414 833.149 47.414 833.065 47.33L831.875 46H827.115ZM841.029 38.86C841.169 38.86 841.239 38.93 841.239 39.07V45.79C841.239 45.93 841.169 46 841.029 46H840.259C840.119 46 840.049 45.93 840.049 45.79V40.68H839.979L836.619 45.79C836.573 45.8647 836.526 45.9207 836.479 45.958C836.433 45.986 836.339 46 836.199 46H835.359C835.219 46 835.149 45.93 835.149 45.79V39.07C835.149 38.93 835.219 38.86 835.359 38.86H836.129C836.269 38.86 836.339 38.93 836.339 39.07V44.18H836.409L839.769 39.07C839.816 38.9953 839.863 38.944 839.909 38.916C839.956 38.8787 840.049 38.86 840.189 38.86H841.029ZM848.627 38.86C848.767 38.86 848.837 38.93 848.837 39.07V45.79C848.837 45.93 848.767 46 848.627 46H847.857C847.717 46 847.647 45.93 847.647 45.79V43.62H845.617L844.427 45.79C844.39 45.8647 844.348 45.9207 844.301 45.958C844.255 45.986 844.18 46 844.077 46H843.237C843.163 46 843.107 45.986 843.069 45.958C843.041 45.9207 843.051 45.8647 843.097 45.79L844.357 43.48C844.115 43.4333 843.905 43.3307 843.727 43.172C843.569 43.0413 843.424 42.85 843.293 42.598C843.163 42.346 843.097 42.01 843.097 41.59V40.89C843.097 39.5367 843.797 38.86 845.197 38.86H848.627ZM845.197 39.98C844.917 39.98 844.693 40.064 844.525 40.232C844.367 40.3907 844.287 40.61 844.287 40.89V41.59C844.287 41.87 844.367 42.094 844.525 42.262C844.693 42.4207 844.917 42.5 845.197 42.5H847.647V39.98H845.197ZM851.721 45.72C851.721 45.776 851.712 45.8273 851.693 45.874C851.684 45.9207 851.67 45.9673 851.651 46.014C851.623 46.0607 851.6 46.1027 851.581 46.14L851.021 47.26C851.002 47.2973 850.97 47.33 850.923 47.358C850.886 47.386 850.848 47.4 850.811 47.4H850.461C850.377 47.4 850.354 47.3533 850.391 47.26L851.021 46H850.671C850.531 46 850.461 45.93 850.461 45.79V44.95C850.461 44.81 850.531 44.74 850.671 44.74H851.511C851.651 44.74 851.721 44.81 851.721 44.95V45.72ZM860.054 44.88C860.371 44.88 860.623 44.7867 860.81 44.6C861.006 44.404 861.104 44.1473 861.104 43.83V40.89C861.104 40.5727 861.006 40.3207 860.81 40.134C860.623 39.938 860.371 39.84 860.054 39.84H858.864C858.444 39.84 858.094 39.98 857.814 40.26C857.534 40.54 857.394 40.89 857.394 41.31V44.88H860.054ZM857.394 46V48.45C857.394 48.59 857.324 48.66 857.184 48.66H856.414C856.274 48.66 856.204 48.59 856.204 48.45V39.07C856.204 38.93 856.274 38.86 856.414 38.86H857.184C857.324 38.86 857.394 38.93 857.394 39.07V39.56H857.464C857.539 39.4013 857.646 39.2613 857.786 39.14C857.907 39.0373 858.066 38.944 858.262 38.86C858.458 38.7667 858.705 38.72 859.004 38.72H860.054C860.791 38.72 861.347 38.9067 861.72 39.28C862.103 39.6533 862.294 40.19 862.294 40.89V43.83C862.294 44.53 862.103 45.0667 861.72 45.44C861.347 45.8133 860.791 46 860.054 46H857.394ZM864.113 43.83C864.113 42.4767 864.813 41.8 866.213 41.8H868.803V40.89C868.803 40.5727 868.705 40.3207 868.509 40.134C868.323 39.938 868.071 39.84 867.753 39.84H866.773C866.456 39.84 866.199 39.938 866.003 40.134C865.817 40.3207 865.723 40.5727 865.723 40.89C865.723 41.03 865.653 41.1 865.513 41.1H864.743C864.603 41.1 864.533 41.03 864.533 40.89C864.533 40.19 864.72 39.6533 865.093 39.28C865.476 38.9067 866.036 38.72 866.773 38.72H867.753C868.491 38.72 869.046 38.9067 869.419 39.28C869.802 39.6533 869.993 40.19 869.993 40.89V45.79C869.993 45.93 869.923 46 869.783 46H869.013C868.873 46 868.803 45.93 868.803 45.79V45.3H868.733C868.659 45.4587 868.551 45.5987 868.411 45.72C868.29 45.8227 868.131 45.916 867.935 46C867.739 46.0933 867.492 46.14 867.193 46.14H866.213C864.813 46.14 864.113 45.4633 864.113 44.11V43.83ZM865.303 44.11C865.303 44.39 865.383 44.614 865.541 44.782C865.709 44.9407 865.933 45.02 866.213 45.02H867.333C867.753 45.02 868.103 44.88 868.383 44.6C868.663 44.32 868.803 43.97 868.803 43.55V42.92H866.213C865.933 42.92 865.709 43.004 865.541 43.172C865.383 43.3307 865.303 43.55 865.303 43.83V44.11ZM874.047 46.14C873.31 46.14 872.75 45.9533 872.367 45.58C871.994 45.2067 871.807 44.67 871.807 43.97V43.62C871.807 43.48 871.877 43.41 872.017 43.41H872.787C872.927 43.41 872.997 43.48 872.997 43.62V43.97C872.997 44.2873 873.091 44.544 873.277 44.74C873.473 44.9267 873.73 45.02 874.047 45.02H875.867C876.147 45.02 876.367 44.9407 876.525 44.782C876.693 44.614 876.777 44.39 876.777 44.11V43.83C876.777 43.55 876.693 43.3307 876.525 43.172C876.367 43.004 876.147 42.92 875.867 42.92H874.677C874.537 42.92 874.467 42.85 874.467 42.71V42.01C874.467 41.87 874.537 41.8 874.677 41.8H875.727C876.007 41.8 876.227 41.7207 876.385 41.562C876.553 41.394 876.637 41.17 876.637 40.89V40.75C876.637 40.47 876.553 40.2507 876.385 40.092C876.227 39.924 876.007 39.84 875.727 39.84H874.187C873.87 39.84 873.613 39.938 873.417 40.134C873.231 40.3207 873.137 40.5727 873.137 40.89V41.24C873.137 41.38 873.067 41.45 872.927 41.45H872.157C872.017 41.45 871.947 41.38 871.947 41.24V40.89C871.947 40.19 872.134 39.6533 872.507 39.28C872.89 38.9067 873.45 38.72 874.187 38.72H875.727C877.127 38.72 877.827 39.3967 877.827 40.75V40.89C877.827 41.17 877.771 41.3987 877.659 41.576C877.547 41.744 877.426 41.8793 877.295 41.982C877.137 42.094 876.964 42.1733 876.777 42.22V42.29C877.001 42.3367 877.197 42.4253 877.365 42.556C877.515 42.668 877.65 42.8267 877.771 43.032C877.902 43.2373 877.967 43.5033 877.967 43.83V44.11C877.967 45.4633 877.267 46.14 875.867 46.14H874.047ZM883.985 44.46L886.505 39.07C886.542 38.9953 886.584 38.944 886.631 38.916C886.687 38.8787 886.785 38.86 886.925 38.86H887.765C887.905 38.86 887.975 38.93 887.975 39.07V45.79C887.975 45.93 887.905 46 887.765 46H886.995C886.855 46 886.785 45.93 886.785 45.79V41.17H886.715L884.545 45.79C884.507 45.8647 884.461 45.9207 884.405 45.958C884.358 45.986 884.265 46 884.125 46H883.775C883.635 46 883.537 45.986 883.481 45.958C883.434 45.9207 883.392 45.8647 883.355 45.79L881.185 41.17H881.115V45.79C881.115 45.93 881.045 46 880.905 46H880.135C879.995 46 879.925 45.93 879.925 45.79V39.07C879.925 38.93 879.995 38.86 880.135 38.86H880.975C881.115 38.86 881.208 38.8787 881.255 38.916C881.311 38.944 881.357 38.9953 881.395 39.07L883.915 44.46H883.985ZM895.05 41.8V40.89C895.05 40.5727 894.952 40.3207 894.756 40.134C894.569 39.938 894.317 39.84 894 39.84H892.32C892.002 39.84 891.746 39.938 891.55 40.134C891.363 40.3207 891.27 40.5727 891.27 40.89V41.8H895.05ZM891.27 42.92V43.97C891.27 44.2873 891.363 44.544 891.55 44.74C891.746 44.9267 892.002 45.02 892.32 45.02H894C894.317 45.02 894.569 44.9267 894.756 44.74C894.952 44.544 895.05 44.2873 895.05 43.97V43.9C895.05 43.76 895.12 43.69 895.26 43.69H896.03C896.17 43.69 896.24 43.76 896.24 43.9V43.97C896.24 44.67 896.048 45.2067 895.666 45.58C895.292 45.9533 894.737 46.14 894 46.14H892.32C891.582 46.14 891.022 45.9533 890.64 45.58C890.266 45.2067 890.08 44.67 890.08 43.97V40.89C890.08 40.19 890.266 39.6533 890.64 39.28C891.022 38.9067 891.582 38.72 892.32 38.72H894C894.737 38.72 895.292 38.9067 895.666 39.28C896.048 39.6533 896.24 40.19 896.24 40.89V42.71C896.24 42.85 896.17 42.92 896.03 42.92H891.27ZM898.551 46C898.411 46 898.341 45.93 898.341 45.79V39.07C898.341 38.93 898.411 38.86 898.551 38.86H899.321C899.461 38.86 899.531 38.93 899.531 39.07V44.88H902.261V39.07C902.261 38.93 902.331 38.86 902.471 38.86H903.241C903.381 38.86 903.451 38.93 903.451 39.07V44.88H906.181V39.07C906.181 38.93 906.251 38.86 906.391 38.86H907.161C907.301 38.86 907.371 38.93 907.371 39.07V45.09L908.631 46.49C908.668 46.5273 908.687 46.574 908.687 46.63C908.687 46.686 908.668 46.7327 908.631 46.77L908.001 47.33C907.898 47.414 907.805 47.414 907.721 47.33L906.531 46H898.551ZM914.641 41.8V40.89C914.641 40.5727 914.543 40.3207 914.347 40.134C914.161 39.938 913.909 39.84 913.591 39.84H911.911C911.594 39.84 911.337 39.938 911.141 40.134C910.955 40.3207 910.861 40.5727 910.861 40.89V41.8H914.641ZM910.861 42.92V43.97C910.861 44.2873 910.955 44.544 911.141 44.74C911.337 44.9267 911.594 45.02 911.911 45.02H913.591C913.909 45.02 914.161 44.9267 914.347 44.74C914.543 44.544 914.641 44.2873 914.641 43.97V43.9C914.641 43.76 914.711 43.69 914.851 43.69H915.621C915.761 43.69 915.831 43.76 915.831 43.9V43.97C915.831 44.67 915.64 45.2067 915.257 45.58C914.884 45.9533 914.329 46.14 913.591 46.14H911.911C911.174 46.14 910.614 45.9533 910.231 45.58C909.858 45.2067 909.671 44.67 909.671 43.97V40.89C909.671 40.19 909.858 39.6533 910.231 39.28C910.614 38.9067 911.174 38.72 911.911 38.72H913.591C914.329 38.72 914.884 38.9067 915.257 39.28C915.64 39.6533 915.831 40.19 915.831 40.89V42.71C915.831 42.85 915.761 42.92 915.621 42.92H910.861ZM919.123 42.92V45.79C919.123 45.93 919.053 46 918.913 46H918.143C918.003 46 917.933 45.93 917.933 45.79V39.07C917.933 38.93 918.003 38.86 918.143 38.86H918.913C919.053 38.86 919.123 38.93 919.123 39.07V41.87H922.693V39.07C922.693 38.93 922.763 38.86 922.903 38.86H923.673C923.812 38.86 923.882 38.93 923.882 39.07V45.79C923.882 45.93 923.812 46 923.673 46H922.903C922.763 46 922.693 45.93 922.693 45.79V42.92H919.123ZM927.312 42.92V45.79C927.312 45.93 927.242 46 927.102 46H926.332C926.192 46 926.122 45.93 926.122 45.79V39.07C926.122 38.93 926.192 38.86 926.332 38.86H927.102C927.242 38.86 927.312 38.93 927.312 39.07V41.87H930.882V39.07C930.882 38.93 930.952 38.86 931.092 38.86H931.862C932.002 38.86 932.072 38.93 932.072 39.07V45.79C932.072 45.93 932.002 46 931.862 46H931.092C930.952 46 930.882 45.93 930.882 45.79V42.92H927.312ZM934.031 43.83C934.031 42.4767 934.731 41.8 936.131 41.8H938.721V40.89C938.721 40.5727 938.623 40.3207 938.427 40.134C938.241 39.938 937.989 39.84 937.671 39.84H936.691C936.374 39.84 936.117 39.938 935.921 40.134C935.735 40.3207 935.641 40.5727 935.641 40.89C935.641 41.03 935.571 41.1 935.431 41.1H934.661C934.521 41.1 934.451 41.03 934.451 40.89C934.451 40.19 934.638 39.6533 935.011 39.28C935.394 38.9067 935.954 38.72 936.691 38.72H937.671C938.409 38.72 938.964 38.9067 939.337 39.28C939.72 39.6533 939.911 40.19 939.911 40.89V45.79C939.911 45.93 939.841 46 939.701 46H938.931C938.791 46 938.721 45.93 938.721 45.79V45.3H938.651C938.577 45.4587 938.469 45.5987 938.329 45.72C938.208 45.8227 938.049 45.916 937.853 46C937.657 46.0933 937.41 46.14 937.111 46.14H936.131C934.731 46.14 934.031 45.4633 934.031 44.11V43.83ZM935.221 44.11C935.221 44.39 935.301 44.614 935.459 44.782C935.627 44.9407 935.851 45.02 936.131 45.02H937.251C937.671 45.02 938.021 44.88 938.301 44.6C938.581 44.32 938.721 43.97 938.721 43.55V42.92H936.131C935.851 42.92 935.627 43.004 935.459 43.172C935.301 43.3307 935.221 43.55 935.221 43.83V44.11ZM947.297 38.86C947.437 38.86 947.507 38.93 947.507 39.07V45.79C947.507 45.93 947.437 46 947.297 46H946.527C946.387 46 946.317 45.93 946.317 45.79V43.62H944.287L943.097 45.79C943.06 45.8647 943.018 45.9207 942.971 45.958C942.925 45.986 942.85 46 942.747 46H941.907C941.833 46 941.777 45.986 941.739 45.958C941.711 45.9207 941.721 45.8647 941.767 45.79L943.027 43.48C942.785 43.4333 942.575 43.3307 942.397 43.172C942.239 43.0413 942.094 42.85 941.963 42.598C941.833 42.346 941.767 42.01 941.767 41.59V40.89C941.767 39.5367 942.467 38.86 943.867 38.86H947.297ZM943.867 39.98C943.587 39.98 943.363 40.064 943.195 40.232C943.037 40.3907 942.957 40.61 942.957 40.89V41.59C942.957 41.87 943.037 42.094 943.195 42.262C943.363 42.4207 943.587 42.5 943.867 42.5H946.317V39.98H943.867ZM953.74 42.92V45.79C953.74 45.93 953.67 46 953.53 46H952.76C952.62 46 952.55 45.93 952.55 45.79V39.07C952.55 38.93 952.62 38.86 952.76 38.86H953.53C953.67 38.86 953.74 38.93 953.74 39.07V41.87H957.31V39.07C957.31 38.93 957.38 38.86 957.52 38.86H958.29C958.43 38.86 958.5 38.93 958.5 39.07V45.79C958.5 45.93 958.43 46 958.29 46H957.52C957.38 46 957.31 45.93 957.31 45.79V42.92H953.74ZM960.459 43.83C960.459 42.4767 961.159 41.8 962.559 41.8H965.149V40.89C965.149 40.5727 965.051 40.3207 964.855 40.134C964.668 39.938 964.416 39.84 964.099 39.84H963.119C962.802 39.84 962.545 39.938 962.349 40.134C962.162 40.3207 962.069 40.5727 962.069 40.89C962.069 41.03 961.999 41.1 961.859 41.1H961.089C960.949 41.1 960.879 41.03 960.879 40.89C960.879 40.19 961.066 39.6533 961.439 39.28C961.822 38.9067 962.382 38.72 963.119 38.72H964.099C964.836 38.72 965.392 38.9067 965.765 39.28C966.148 39.6533 966.339 40.19 966.339 40.89V45.79C966.339 45.93 966.269 46 966.129 46H965.359C965.219 46 965.149 45.93 965.149 45.79V45.3H965.079C965.004 45.4587 964.897 45.5987 964.757 45.72C964.636 45.8227 964.477 45.916 964.281 46C964.085 46.0933 963.838 46.14 963.539 46.14H962.559C961.159 46.14 960.459 45.4633 960.459 44.11V43.83ZM961.649 44.11C961.649 44.39 961.728 44.614 961.887 44.782C962.055 44.9407 962.279 45.02 962.559 45.02H963.679C964.099 45.02 964.449 44.88 964.729 44.6C965.009 44.32 965.149 43.97 965.149 43.55V42.92H962.559C962.279 42.92 962.055 43.004 961.887 43.172C961.728 43.3307 961.649 43.55 961.649 43.83V44.11ZM975.576 39.98H973.266L972.286 44.88H975.576V39.98ZM976.766 44.88H977.466C977.606 44.88 977.676 44.95 977.676 45.09V47.33C977.676 47.47 977.606 47.54 977.466 47.54H976.696C976.556 47.54 976.486 47.47 976.486 47.33V46H971.446V47.33C971.446 47.47 971.376 47.54 971.236 47.54H970.466C970.326 47.54 970.256 47.47 970.256 47.33V45.09C970.256 44.95 970.326 44.88 970.466 44.88H971.096L972.286 39.07C972.314 38.93 972.431 38.86 972.636 38.86H976.556C976.696 38.86 976.766 38.93 976.766 39.07V44.88ZM978.93 43.83C978.93 42.4767 979.63 41.8 981.03 41.8H983.62V40.89C983.62 40.5727 983.522 40.3207 983.326 40.134C983.139 39.938 982.887 39.84 982.57 39.84H981.59C981.273 39.84 981.016 39.938 980.82 40.134C980.633 40.3207 980.54 40.5727 980.54 40.89C980.54 41.03 980.47 41.1 980.33 41.1H979.56C979.42 41.1 979.35 41.03 979.35 40.89C979.35 40.19 979.537 39.6533 979.91 39.28C980.293 38.9067 980.853 38.72 981.59 38.72H982.57C983.307 38.72 983.863 38.9067 984.236 39.28C984.619 39.6533 984.81 40.19 984.81 40.89V45.79C984.81 45.93 984.74 46 984.6 46H983.83C983.69 46 983.62 45.93 983.62 45.79V45.3H983.55C983.475 45.4587 983.368 45.5987 983.228 45.72C983.107 45.8227 982.948 45.916 982.752 46C982.556 46.0933 982.309 46.14 982.01 46.14H981.03C979.63 46.14 978.93 45.4633 978.93 44.11V43.83ZM980.12 44.11C980.12 44.39 980.199 44.614 980.358 44.782C980.526 44.9407 980.75 45.02 981.03 45.02H982.15C982.57 45.02 982.92 44.88 983.2 44.6C983.48 44.32 983.62 43.97 983.62 43.55V42.92H981.03C980.75 42.92 980.526 43.004 980.358 43.172C980.199 43.3307 980.12 43.55 980.12 43.83V44.11ZM988.234 42.92V45.79C988.234 45.93 988.164 46 988.024 46H987.254C987.114 46 987.044 45.93 987.044 45.79V39.07C987.044 38.93 987.114 38.86 987.254 38.86H988.024C988.164 38.86 988.234 38.93 988.234 39.07V41.87H991.804V39.07C991.804 38.93 991.874 38.86 992.014 38.86H992.784C992.924 38.86 992.994 38.93 992.994 39.07V45.79C992.994 45.93 992.924 46 992.784 46H992.014C991.874 46 991.804 45.93 991.804 45.79V42.92H988.234ZM996.423 42.92V45.79C996.423 45.93 996.353 46 996.213 46H995.443C995.303 46 995.233 45.93 995.233 45.79V39.07C995.233 38.93 995.303 38.86 995.443 38.86H996.213C996.353 38.86 996.423 38.93 996.423 39.07V41.87H999.993V39.07C999.993 38.93 1000.06 38.86 1000.2 38.86H1000.97C1001.11 38.86 1001.18 38.93 1001.18 39.07V45.79C1001.18 45.93 1001.11 46 1000.97 46H1000.2C1000.06 46 999.993 45.93 999.993 45.79V42.92H996.423ZM1008.32 40.89C1008.32 40.5727 1008.22 40.3207 1008.03 40.134C1007.84 39.938 1007.59 39.84 1007.27 39.84H1005.52C1005.21 39.84 1004.95 39.938 1004.75 40.134C1004.57 40.3207 1004.47 40.5727 1004.47 40.89V43.97C1004.47 44.2873 1004.57 44.544 1004.75 44.74C1004.95 44.9267 1005.21 45.02 1005.52 45.02H1007.27C1007.59 45.02 1007.84 44.9267 1008.03 44.74C1008.22 44.544 1008.32 44.2873 1008.32 43.97V40.89ZM1009.51 43.97C1009.51 44.67 1009.32 45.2067 1008.94 45.58C1008.57 45.9533 1008.01 46.14 1007.27 46.14H1005.52C1004.79 46.14 1004.23 45.9533 1003.84 45.58C1003.47 45.2067 1003.28 44.67 1003.28 43.97V40.89C1003.28 40.19 1003.47 39.6533 1003.84 39.28C1004.23 38.9067 1004.79 38.72 1005.52 38.72H1007.27C1008.01 38.72 1008.57 38.9067 1008.94 39.28C1009.32 39.6533 1009.51 40.19 1009.51 40.89V43.97ZM1014.27 37.74C1013.74 37.74 1013.34 37.6093 1013.07 37.348C1012.8 37.0773 1012.66 36.6947 1012.66 36.2V35.85C1012.66 35.71 1012.73 35.64 1012.87 35.64H1013.5C1013.64 35.64 1013.71 35.71 1013.71 35.85V36.2C1013.71 36.5733 1013.9 36.76 1014.27 36.76H1015.04C1015.42 36.76 1015.6 36.5733 1015.6 36.2V35.85C1015.6 35.71 1015.67 35.64 1015.81 35.64H1016.44C1016.58 35.64 1016.65 35.71 1016.65 35.85V36.2C1016.65 36.6947 1016.52 37.0773 1016.25 37.348C1015.98 37.6093 1015.57 37.74 1015.04 37.74H1014.27ZM1017.49 38.86C1017.63 38.86 1017.7 38.93 1017.7 39.07V45.79C1017.7 45.93 1017.63 46 1017.49 46H1016.72C1016.58 46 1016.51 45.93 1016.51 45.79V40.68H1016.44L1013.08 45.79C1013.04 45.8647 1012.99 45.9207 1012.94 45.958C1012.9 45.986 1012.8 46 1012.66 46H1011.82C1011.68 46 1011.61 45.93 1011.61 45.79V39.07C1011.61 38.93 1011.68 38.86 1011.82 38.86H1012.59C1012.73 38.86 1012.8 38.93 1012.8 39.07V44.18H1012.87L1016.23 39.07C1016.28 38.9953 1016.33 38.944 1016.37 38.916C1016.42 38.8787 1016.51 38.86 1016.65 38.86H1017.49ZM1023.79 43.97C1023.79 44.2873 1023.88 44.544 1024.07 44.74C1024.27 44.9267 1024.52 45.02 1024.84 45.02H1026.45C1026.77 45.02 1027.02 44.9267 1027.21 44.74C1027.4 44.544 1027.5 44.2873 1027.5 43.97V43.62C1027.5 43.48 1027.57 43.41 1027.71 43.41H1028.48C1028.62 43.41 1028.69 43.48 1028.69 43.62V43.97C1028.69 44.67 1028.5 45.2067 1028.12 45.58C1027.74 45.9533 1027.19 46.14 1026.45 46.14H1024.84C1024.1 46.14 1023.54 45.9533 1023.16 45.58C1022.79 45.2067 1022.6 44.67 1022.6 43.97V40.89C1022.6 40.19 1022.79 39.6533 1023.16 39.28C1023.54 38.9067 1024.1 38.72 1024.84 38.72H1026.45C1027.19 38.72 1027.74 38.9067 1028.12 39.28C1028.5 39.6533 1028.69 40.19 1028.69 40.89V41.24C1028.69 41.38 1028.62 41.45 1028.48 41.45H1027.71C1027.57 41.45 1027.5 41.38 1027.5 41.24V40.89C1027.5 40.5727 1027.4 40.3207 1027.21 40.134C1027.02 39.938 1026.77 39.84 1026.45 39.84H1024.84C1024.52 39.84 1024.27 39.938 1024.07 40.134C1023.88 40.3207 1023.79 40.5727 1023.79 40.89V43.97ZM1032.27 46C1032.13 46 1032.06 45.93 1032.06 45.79V39.98H1029.89C1029.75 39.98 1029.68 39.91 1029.68 39.77V39.07C1029.68 38.93 1029.75 38.86 1029.89 38.86H1035.42C1035.56 38.86 1035.63 38.93 1035.63 39.07V39.77C1035.63 39.91 1035.56 39.98 1035.42 39.98H1033.25V45.79C1033.25 45.93 1033.18 46 1033.04 46H1032.27ZM1040.74 44.88C1041.06 44.88 1041.31 44.7867 1041.5 44.6C1041.69 44.404 1041.79 44.1473 1041.79 43.83V40.89C1041.79 40.5727 1041.69 40.3207 1041.5 40.134C1041.31 39.938 1041.06 39.84 1040.74 39.84H1039.55C1039.13 39.84 1038.78 39.98 1038.5 40.26C1038.22 40.54 1038.08 40.89 1038.08 41.31V44.88H1040.74ZM1038.08 46V48.45C1038.08 48.59 1038.01 48.66 1037.87 48.66H1037.1C1036.96 48.66 1036.89 48.59 1036.89 48.45V39.07C1036.89 38.93 1036.96 38.86 1037.1 38.86H1037.87C1038.01 38.86 1038.08 38.93 1038.08 39.07V39.56H1038.15C1038.23 39.4013 1038.33 39.2613 1038.47 39.14C1038.59 39.0373 1038.75 38.944 1038.95 38.86C1039.15 38.7667 1039.39 38.72 1039.69 38.72H1040.74C1041.48 38.72 1042.03 38.9067 1042.41 39.28C1042.79 39.6533 1042.98 40.19 1042.98 40.89V43.83C1042.98 44.53 1042.79 45.0667 1042.41 45.44C1042.03 45.8133 1041.48 46 1040.74 46H1038.08ZM1044.8 43.83C1044.8 42.4767 1045.5 41.8 1046.9 41.8H1049.49V40.89C1049.49 40.5727 1049.39 40.3207 1049.2 40.134C1049.01 39.938 1048.76 39.84 1048.44 39.84H1047.46C1047.14 39.84 1046.89 39.938 1046.69 40.134C1046.5 40.3207 1046.41 40.5727 1046.41 40.89C1046.41 41.03 1046.34 41.1 1046.2 41.1H1045.43C1045.29 41.1 1045.22 41.03 1045.22 40.89C1045.22 40.19 1045.41 39.6533 1045.78 39.28C1046.16 38.9067 1046.72 38.72 1047.46 38.72H1048.44C1049.18 38.72 1049.73 38.9067 1050.11 39.28C1050.49 39.6533 1050.68 40.19 1050.68 40.89V45.79C1050.68 45.93 1050.61 46 1050.47 46H1049.7C1049.56 46 1049.49 45.93 1049.49 45.79V45.3H1049.42C1049.35 45.4587 1049.24 45.5987 1049.1 45.72C1048.98 45.8227 1048.82 45.916 1048.62 46C1048.43 46.0933 1048.18 46.14 1047.88 46.14H1046.9C1045.5 46.14 1044.8 45.4633 1044.8 44.11V43.83ZM1045.99 44.11C1045.99 44.39 1046.07 44.614 1046.23 44.782C1046.4 44.9407 1046.62 45.02 1046.9 45.02H1048.02C1048.44 45.02 1048.79 44.88 1049.07 44.6C1049.35 44.32 1049.49 43.97 1049.49 43.55V42.92H1046.9C1046.62 42.92 1046.4 43.004 1046.23 43.172C1046.07 43.3307 1045.99 43.55 1045.99 43.83V44.11ZM1054.1 42.92V45.79C1054.1 45.93 1054.03 46 1053.89 46H1053.12C1052.98 46 1052.91 45.93 1052.91 45.79V39.07C1052.91 38.93 1052.98 38.86 1053.12 38.86H1053.89C1054.03 38.86 1054.1 38.93 1054.1 39.07V41.87H1057.67V39.07C1057.67 38.93 1057.74 38.86 1057.88 38.86H1058.65C1058.79 38.86 1058.86 38.93 1058.86 39.07V45.79C1058.86 45.93 1058.79 46 1058.65 46H1057.88C1057.74 46 1057.67 45.93 1057.67 45.79V42.92H1054.1ZM1066.98 38.86C1067.12 38.86 1067.19 38.93 1067.19 39.07V45.79C1067.19 45.93 1067.12 46 1066.98 46H1066.21C1066.07 46 1066 45.93 1066 45.79V40.68H1065.93L1062.57 45.79C1062.53 45.8647 1062.48 45.9207 1062.43 45.958C1062.39 45.986 1062.29 46 1062.15 46H1061.31C1061.17 46 1061.1 45.93 1061.1 45.79V39.07C1061.1 38.93 1061.17 38.86 1061.31 38.86H1062.08C1062.22 38.86 1062.29 38.93 1062.29 39.07V44.18H1062.36L1065.72 39.07C1065.77 38.9953 1065.82 38.944 1065.86 38.916C1065.91 38.8787 1066 38.86 1066.14 38.86H1066.98ZM1069.64 46C1069.5 46 1069.43 45.93 1069.43 45.79V39.07C1069.43 38.93 1069.5 38.86 1069.64 38.86H1070.41C1070.55 38.86 1070.62 38.93 1070.62 39.07V44.88H1074.05V39.07C1074.05 38.93 1074.12 38.86 1074.26 38.86H1075.03C1075.17 38.86 1075.24 38.93 1075.24 39.07V45.09L1076.5 46.49C1076.54 46.5273 1076.56 46.574 1076.56 46.63C1076.56 46.686 1076.54 46.7327 1076.5 46.77L1075.87 47.33C1075.77 47.414 1075.67 47.414 1075.59 47.33L1074.4 46H1069.64ZM1082.5 41.8V40.89C1082.5 40.5727 1082.41 40.3207 1082.21 40.134C1082.02 39.938 1081.77 39.84 1081.45 39.84H1079.77C1079.46 39.84 1079.2 39.938 1079 40.134C1078.82 40.3207 1078.72 40.5727 1078.72 40.89V41.8H1082.5ZM1078.72 42.92V43.97C1078.72 44.2873 1078.82 44.544 1079 44.74C1079.2 44.9267 1079.46 45.02 1079.77 45.02H1081.45C1081.77 45.02 1082.02 44.9267 1082.21 44.74C1082.41 44.544 1082.5 44.2873 1082.5 43.97V43.9C1082.5 43.76 1082.57 43.69 1082.71 43.69H1083.48C1083.62 43.69 1083.69 43.76 1083.69 43.9V43.97C1083.69 44.67 1083.5 45.2067 1083.12 45.58C1082.75 45.9533 1082.19 46.14 1081.45 46.14H1079.77C1079.04 46.14 1078.48 45.9533 1078.09 45.58C1077.72 45.2067 1077.53 44.67 1077.53 43.97V40.89C1077.53 40.19 1077.72 39.6533 1078.09 39.28C1078.48 38.9067 1079.04 38.72 1079.77 38.72H1081.45C1082.19 38.72 1082.75 38.9067 1083.12 39.28C1083.5 39.6533 1083.69 40.19 1083.69 40.89V42.71C1083.69 42.85 1083.62 42.92 1083.48 42.92H1078.72ZM1086.44 45.72C1086.44 45.776 1086.43 45.8273 1086.41 45.874C1086.4 45.9207 1086.39 45.9673 1086.37 46.014C1086.34 46.0607 1086.32 46.1027 1086.3 46.14L1085.74 47.26C1085.72 47.2973 1085.69 47.33 1085.64 47.358C1085.6 47.386 1085.57 47.4 1085.53 47.4H1085.18C1085.1 47.4 1085.07 47.3533 1085.11 47.26L1085.74 46H1085.39C1085.25 46 1085.18 45.93 1085.18 45.79V44.95C1085.18 44.81 1085.25 44.74 1085.39 44.74H1086.23C1086.37 44.74 1086.44 44.81 1086.44 44.95V45.72ZM873.732 58.92V61.79C873.732 61.93 873.662 62 873.522 62H872.752C872.612 62 872.542 61.93 872.542 61.79V55.07C872.542 54.93 872.612 54.86 872.752 54.86H873.522C873.662 54.86 873.732 54.93 873.732 55.07V57.87H877.302V55.07C877.302 54.93 877.372 54.86 877.512 54.86H878.282C878.422 54.86 878.492 54.93 878.492 55.07V61.79C878.492 61.93 878.422 62 878.282 62H877.512C877.372 62 877.302 61.93 877.302 61.79V58.92H873.732ZM885.561 57.8V56.89C885.561 56.5727 885.463 56.3207 885.267 56.134C885.081 55.938 884.829 55.84 884.511 55.84H882.831C882.514 55.84 882.257 55.938 882.061 56.134C881.875 56.3207 881.781 56.5727 881.781 56.89V57.8H885.561ZM881.781 58.92V59.97C881.781 60.2873 881.875 60.544 882.061 60.74C882.257 60.9267 882.514 61.02 882.831 61.02H884.511C884.829 61.02 885.081 60.9267 885.267 60.74C885.463 60.544 885.561 60.2873 885.561 59.97V59.9C885.561 59.76 885.631 59.69 885.771 59.69H886.541C886.681 59.69 886.751 59.76 886.751 59.9V59.97C886.751 60.67 886.56 61.2067 886.177 61.58C885.804 61.9533 885.249 62.14 884.511 62.14H882.831C882.094 62.14 881.534 61.9533 881.151 61.58C880.778 61.2067 880.591 60.67 880.591 59.97V56.89C880.591 56.19 880.778 55.6533 881.151 55.28C881.534 54.9067 882.094 54.72 882.831 54.72H884.511C885.249 54.72 885.804 54.9067 886.177 55.28C886.56 55.6533 886.751 56.19 886.751 56.89V58.71C886.751 58.85 886.681 58.92 886.541 58.92H881.781ZM896.807 54.86C896.947 54.86 897.017 54.93 897.017 55.07V61.79C897.017 61.93 896.947 62 896.807 62H896.037C895.897 62 895.827 61.93 895.827 61.79V59.62H893.797L892.607 61.79C892.57 61.8647 892.528 61.9207 892.481 61.958C892.434 61.986 892.36 62 892.257 62H891.417C891.342 62 891.286 61.986 891.249 61.958C891.221 61.9207 891.23 61.8647 891.277 61.79L892.537 59.48C892.294 59.4333 892.084 59.3307 891.907 59.172C891.748 59.0413 891.604 58.85 891.473 58.598C891.342 58.346 891.277 58.01 891.277 57.59V56.89C891.277 55.5367 891.977 54.86 893.377 54.86H896.807ZM893.377 55.98C893.097 55.98 892.873 56.064 892.705 56.232C892.546 56.3907 892.467 56.61 892.467 56.89V57.59C892.467 57.87 892.546 58.094 892.705 58.262C892.873 58.4207 893.097 58.5 893.377 58.5H895.827V55.98H893.377ZM903.107 60.88C903.387 60.88 903.606 60.8007 903.765 60.642C903.933 60.474 904.017 60.25 904.017 59.97V59.83C904.017 59.55 903.933 59.3307 903.765 59.172C903.606 59.004 903.387 58.92 903.107 58.92H900.447V60.88H903.107ZM902.687 57.8C902.967 57.8 903.186 57.7207 903.345 57.562C903.513 57.394 903.597 57.17 903.597 56.89C903.597 56.61 903.513 56.3907 903.345 56.232C903.186 56.064 902.967 55.98 902.687 55.98H900.447V57.8H902.687ZM899.467 62C899.327 62 899.257 61.93 899.257 61.79V55.07C899.257 54.93 899.327 54.86 899.467 54.86H902.687C904.087 54.86 904.787 55.5367 904.787 56.89C904.787 57.17 904.735 57.3987 904.633 57.576C904.539 57.744 904.437 57.8793 904.325 57.982C904.194 58.094 904.045 58.1733 903.877 58.22V58.29C904.119 58.3367 904.339 58.4253 904.535 58.556C904.703 58.668 904.857 58.8267 904.997 59.032C905.137 59.2373 905.207 59.5033 905.207 59.83V59.97C905.207 61.3233 904.507 62 903.107 62H899.467ZM908.492 60.11C908.352 60.81 908.114 61.3233 907.778 61.65C907.442 61.9767 906.957 62.14 906.322 62.14H906.112C905.972 62.14 905.902 62.07 905.902 61.93V61.23C905.902 61.09 905.972 61.02 906.112 61.02H906.322C906.565 61.02 906.77 60.9407 906.938 60.782C907.116 60.6233 907.237 60.3993 907.302 60.11L908.352 55.07C908.38 54.93 908.497 54.86 908.702 54.86H912.622C912.762 54.86 912.832 54.93 912.832 55.07V61.79C912.832 61.93 912.762 62 912.622 62H911.852C911.712 62 911.642 61.93 911.642 61.79V55.98H909.332L908.492 60.11ZM920.227 54.86C920.367 54.86 920.437 54.93 920.437 55.07V61.79C920.437 61.93 920.367 62 920.227 62H919.457C919.317 62 919.247 61.93 919.247 61.79V59.62H917.217L916.027 61.79C915.99 61.8647 915.948 61.9207 915.901 61.958C915.854 61.986 915.78 62 915.677 62H914.837C914.762 62 914.706 61.986 914.669 61.958C914.641 61.9207 914.65 61.8647 914.697 61.79L915.957 59.48C915.714 59.4333 915.504 59.3307 915.327 59.172C915.168 59.0413 915.024 58.85 914.893 58.598C914.762 58.346 914.697 58.01 914.697 57.59V56.89C914.697 55.5367 915.397 54.86 916.797 54.86H920.227ZM916.797 55.98C916.517 55.98 916.293 56.064 916.125 56.232C915.966 56.3907 915.887 56.61 915.887 56.89V57.59C915.887 57.87 915.966 58.094 916.125 58.262C916.293 58.4207 916.517 58.5 916.797 58.5H919.247V55.98H916.797ZM927.507 57.8V56.89C927.507 56.5727 927.409 56.3207 927.213 56.134C927.026 55.938 926.774 55.84 926.457 55.84H924.777C924.459 55.84 924.203 55.938 924.007 56.134C923.82 56.3207 923.727 56.5727 923.727 56.89V57.8H927.507ZM923.727 58.92V59.97C923.727 60.2873 923.82 60.544 924.007 60.74C924.203 60.9267 924.459 61.02 924.777 61.02H926.457C926.774 61.02 927.026 60.9267 927.213 60.74C927.409 60.544 927.507 60.2873 927.507 59.97V59.9C927.507 59.76 927.577 59.69 927.717 59.69H928.487C928.627 59.69 928.697 59.76 928.697 59.9V59.97C928.697 60.67 928.505 61.2067 928.123 61.58C927.749 61.9533 927.194 62.14 926.457 62.14H924.777C924.039 62.14 923.479 61.9533 923.097 61.58C922.723 61.2067 922.537 60.67 922.537 59.97V56.89C922.537 56.19 922.723 55.6533 923.097 55.28C923.479 54.9067 924.039 54.72 924.777 54.72H926.457C927.194 54.72 927.749 54.9067 928.123 55.28C928.505 55.6533 928.697 56.19 928.697 56.89V58.71C928.697 58.85 928.627 58.92 928.487 58.92H923.727ZM932.408 62C932.268 62 932.198 61.93 932.198 61.79V55.98H930.028C929.888 55.98 929.818 55.91 929.818 55.77V55.07C929.818 54.93 929.888 54.86 930.028 54.86H935.558C935.698 54.86 935.768 54.93 935.768 55.07V55.77C935.768 55.91 935.698 55.98 935.558 55.98H933.388V61.79C933.388 61.93 933.318 62 933.178 62H932.408ZM938.082 59.97C938.082 60.2873 938.175 60.544 938.362 60.74C938.558 60.9267 938.815 61.02 939.132 61.02H940.742C941.059 61.02 941.311 60.9267 941.498 60.74C941.694 60.544 941.792 60.2873 941.792 59.97V59.62C941.792 59.48 941.862 59.41 942.002 59.41H942.772C942.912 59.41 942.982 59.48 942.982 59.62V59.97C942.982 60.67 942.791 61.2067 942.408 61.58C942.035 61.9533 941.479 62.14 940.742 62.14H939.132C938.395 62.14 937.835 61.9533 937.452 61.58C937.079 61.2067 936.892 60.67 936.892 59.97V56.89C936.892 56.19 937.079 55.6533 937.452 55.28C937.835 54.9067 938.395 54.72 939.132 54.72H940.742C941.479 54.72 942.035 54.9067 942.408 55.28C942.791 55.6533 942.982 56.19 942.982 56.89V57.24C942.982 57.38 942.912 57.45 942.772 57.45H942.002C941.862 57.45 941.792 57.38 941.792 57.24V56.89C941.792 56.5727 941.694 56.3207 941.498 56.134C941.311 55.938 941.059 55.84 940.742 55.84H939.132C938.815 55.84 938.558 55.938 938.362 56.134C938.175 56.3207 938.082 56.5727 938.082 56.89V59.97ZM950.1 54.86C950.24 54.86 950.31 54.93 950.31 55.07V61.79C950.31 61.93 950.24 62 950.1 62H949.33C949.19 62 949.12 61.93 949.12 61.79V59.62H947.09L945.9 61.79C945.863 61.8647 945.821 61.9207 945.774 61.958C945.727 61.986 945.653 62 945.55 62H944.71C944.635 62 944.579 61.986 944.542 61.958C944.514 61.9207 944.523 61.8647 944.57 61.79L945.83 59.48C945.587 59.4333 945.377 59.3307 945.2 59.172C945.041 59.0413 944.897 58.85 944.766 58.598C944.635 58.346 944.57 58.01 944.57 57.59V56.89C944.57 55.5367 945.27 54.86 946.67 54.86H950.1ZM946.67 55.98C946.39 55.98 946.166 56.064 945.998 56.232C945.839 56.3907 945.76 56.61 945.76 56.89V57.59C945.76 57.87 945.839 58.094 945.998 58.262C946.166 58.4207 946.39 58.5 946.67 58.5H949.12V55.98H946.67ZM960.322 62C960.182 62 960.112 61.93 960.112 61.79V55.98H956.542V61.79C956.542 61.93 956.472 62 956.332 62H955.562C955.422 62 955.352 61.93 955.352 61.79V55.07C955.352 54.93 955.422 54.86 955.562 54.86H961.092C961.232 54.86 961.302 54.93 961.302 55.07V61.79C961.302 61.93 961.232 62 961.092 62H960.322ZM967.98 55.07C968.008 54.9953 968.045 54.944 968.092 54.916C968.148 54.8787 968.227 54.86 968.33 54.86H969.17C969.319 54.86 969.366 54.93 969.31 55.07L966.58 62C966.384 62.4947 966.193 62.91 966.006 63.246C965.819 63.582 965.619 63.8527 965.404 64.058C965.189 64.2727 964.956 64.4267 964.704 64.52C964.452 64.6133 964.167 64.66 963.85 64.66H963.57C963.43 64.66 963.36 64.59 963.36 64.45V63.75C963.36 63.61 963.43 63.54 963.57 63.54H963.85C964.205 63.54 964.494 63.4233 964.718 63.19C964.951 62.9567 965.175 62.56 965.39 62L962.66 55.07C962.604 54.93 962.651 54.86 962.8 54.86H963.64C963.743 54.86 963.817 54.8787 963.864 54.916C963.92 54.944 963.962 54.9953 963.99 55.07L965.95 60.32H966.02L967.98 55.07ZM971.715 59.97C971.715 60.2873 971.808 60.544 971.995 60.74C972.191 60.9267 972.448 61.02 972.765 61.02H974.305C974.622 61.02 974.874 60.9267 975.061 60.74C975.257 60.544 975.355 60.2873 975.355 59.97V58.15C975.355 57.8327 975.257 57.5807 975.061 57.394C974.874 57.198 974.622 57.1 974.305 57.1H971.715V59.97ZM970.525 55.42C970.525 54.0107 971.272 53.2407 972.765 53.11L974.445 52.97C974.66 52.9513 974.818 52.886 974.921 52.774C975.024 52.662 975.075 52.5173 975.075 52.34V52.27C975.075 52.13 975.145 52.06 975.285 52.06H976.055C976.195 52.06 976.265 52.13 976.265 52.27V52.34C976.265 52.9373 976.12 53.3807 975.831 53.67C975.542 53.95 975.08 54.1133 974.445 54.16L972.765 54.3C972.448 54.328 972.191 54.4447 971.995 54.65C971.808 54.846 971.715 55.1027 971.715 55.42V55.98H974.305C975.042 55.98 975.598 56.1667 975.971 56.54C976.354 56.9133 976.545 57.45 976.545 58.15V59.97C976.545 60.67 976.354 61.2067 975.971 61.58C975.598 61.9533 975.042 62.14 974.305 62.14H972.765C972.028 62.14 971.468 61.9533 971.085 61.58C970.712 61.2067 970.525 60.67 970.525 59.97V55.42ZM979.969 60.11C979.829 60.81 979.591 61.3233 979.255 61.65C978.919 61.9767 978.434 62.14 977.799 62.14H977.589C977.449 62.14 977.379 62.07 977.379 61.93V61.23C977.379 61.09 977.449 61.02 977.589 61.02H977.799C978.042 61.02 978.247 60.9407 978.415 60.782C978.592 60.6233 978.714 60.3993 978.779 60.11L979.829 55.07C979.857 54.93 979.974 54.86 980.179 54.86H984.099C984.239 54.86 984.309 54.93 984.309 55.07V61.79C984.309 61.93 984.239 62 984.099 62H983.329C983.189 62 983.119 61.93 983.119 61.79V55.98H980.809L979.969 60.11ZM992.432 54.86C992.572 54.86 992.642 54.93 992.642 55.07V61.79C992.642 61.93 992.572 62 992.432 62H991.662C991.522 62 991.452 61.93 991.452 61.79V56.68H991.382L988.022 61.79C987.975 61.8647 987.928 61.9207 987.882 61.958C987.835 61.986 987.742 62 987.602 62H986.762C986.622 62 986.552 61.93 986.552 61.79V55.07C986.552 54.93 986.622 54.86 986.762 54.86H987.532C987.672 54.86 987.742 54.93 987.742 55.07V60.18H987.812L991.172 55.07C991.218 54.9953 991.265 54.944 991.312 54.916C991.358 54.8787 991.452 54.86 991.592 54.86H992.432ZM995.928 57.45C995.928 57.7673 996.021 58.024 996.208 58.22C996.404 58.4067 996.66 58.5 996.978 58.5H999.358V55.07C999.358 54.93 999.428 54.86 999.568 54.86H1000.34C1000.48 54.86 1000.55 54.93 1000.55 55.07V61.79C1000.55 61.93 1000.48 62 1000.34 62H999.568C999.428 62 999.358 61.93 999.358 61.79V59.62H996.978C996.24 59.62 995.68 59.4333 995.298 59.06C994.924 58.6867 994.738 58.15 994.738 57.45V55.07C994.738 54.93 994.808 54.86 994.948 54.86H995.718C995.858 54.86 995.928 54.93 995.928 55.07V57.45ZM1003.98 58.92V61.79C1003.98 61.93 1003.91 62 1003.77 62H1003C1002.86 62 1002.79 61.93 1002.79 61.79V55.07C1002.79 54.93 1002.86 54.86 1003 54.86H1003.77C1003.91 54.86 1003.98 54.93 1003.98 55.07V57.87H1007.55V55.07C1007.55 54.93 1007.62 54.86 1007.76 54.86H1008.53C1008.67 54.86 1008.74 54.93 1008.74 55.07V61.79C1008.74 61.93 1008.67 62 1008.53 62H1007.76C1007.62 62 1007.55 61.93 1007.55 61.79V58.92H1003.98ZM1015.88 56.89C1015.88 56.5727 1015.79 56.3207 1015.59 56.134C1015.4 55.938 1015.15 55.84 1014.83 55.84H1013.08C1012.77 55.84 1012.51 55.938 1012.31 56.134C1012.13 56.3207 1012.03 56.5727 1012.03 56.89V59.97C1012.03 60.2873 1012.13 60.544 1012.31 60.74C1012.51 60.9267 1012.77 61.02 1013.08 61.02H1014.83C1015.15 61.02 1015.4 60.9267 1015.59 60.74C1015.79 60.544 1015.88 60.2873 1015.88 59.97V56.89ZM1017.07 59.97C1017.07 60.67 1016.88 61.2067 1016.5 61.58C1016.13 61.9533 1015.57 62.14 1014.83 62.14H1013.08C1012.35 62.14 1011.79 61.9533 1011.4 61.58C1011.03 61.2067 1010.84 60.67 1010.84 59.97V56.89C1010.84 56.19 1011.03 55.6533 1011.4 55.28C1011.79 54.9067 1012.35 54.72 1013.08 54.72H1014.83C1015.57 54.72 1016.13 54.9067 1016.5 55.28C1016.88 55.6533 1017.07 56.19 1017.07 56.89V59.97ZM1021.83 53.74C1021.3 53.74 1020.9 53.6093 1020.63 53.348C1020.36 53.0773 1020.22 52.6947 1020.22 52.2V51.85C1020.22 51.71 1020.29 51.64 1020.43 51.64H1021.06C1021.2 51.64 1021.27 51.71 1021.27 51.85V52.2C1021.27 52.5733 1021.46 52.76 1021.83 52.76H1022.6C1022.98 52.76 1023.16 52.5733 1023.16 52.2V51.85C1023.16 51.71 1023.23 51.64 1023.37 51.64H1024C1024.14 51.64 1024.21 51.71 1024.21 51.85V52.2C1024.21 52.6947 1024.08 53.0773 1023.81 53.348C1023.54 53.6093 1023.13 53.74 1022.6 53.74H1021.83ZM1025.05 54.86C1025.19 54.86 1025.26 54.93 1025.26 55.07V61.79C1025.26 61.93 1025.19 62 1025.05 62H1024.28C1024.14 62 1024.07 61.93 1024.07 61.79V56.68H1024L1020.64 61.79C1020.6 61.8647 1020.55 61.9207 1020.5 61.958C1020.46 61.986 1020.36 62 1020.22 62H1019.38C1019.24 62 1019.17 61.93 1019.17 61.79V55.07C1019.17 54.93 1019.24 54.86 1019.38 54.86H1020.15C1020.29 54.86 1020.36 54.93 1020.36 55.07V60.18H1020.43L1023.79 55.07C1023.84 54.9953 1023.89 54.944 1023.93 54.916C1023.98 54.8787 1024.07 54.86 1024.21 54.86H1025.05ZM1035.2 56.89C1035.2 56.5727 1035.1 56.3207 1034.91 56.134C1034.72 55.938 1034.47 55.84 1034.15 55.84H1032.4C1032.08 55.84 1031.83 55.938 1031.63 56.134C1031.44 56.3207 1031.35 56.5727 1031.35 56.89V59.97C1031.35 60.2873 1031.44 60.544 1031.63 60.74C1031.83 60.9267 1032.08 61.02 1032.4 61.02H1034.15C1034.47 61.02 1034.72 60.9267 1034.91 60.74C1035.1 60.544 1035.2 60.2873 1035.2 59.97V56.89ZM1036.39 59.97C1036.39 60.67 1036.2 61.2067 1035.82 61.58C1035.44 61.9533 1034.89 62.14 1034.15 62.14H1032.4C1031.66 62.14 1031.1 61.9533 1030.72 61.58C1030.35 61.2067 1030.16 60.67 1030.16 59.97V56.89C1030.16 56.19 1030.35 55.6533 1030.72 55.28C1031.1 54.9067 1031.66 54.72 1032.4 54.72H1034.15C1034.89 54.72 1035.44 54.9067 1035.82 55.28C1036.2 55.6533 1036.39 56.19 1036.39 56.89V59.97ZM1042.06 54.86V52.41C1042.06 52.27 1042.13 52.2 1042.27 52.2H1043.04C1043.18 52.2 1043.25 52.27 1043.25 52.41V54.86H1044.72C1045.46 54.86 1046.01 55.0467 1046.39 55.42C1046.77 55.7933 1046.96 56.33 1046.96 57.03V59.83C1046.96 60.53 1046.77 61.0667 1046.39 61.44C1046.01 61.8133 1045.46 62 1044.72 62H1043.25V64.45C1043.25 64.59 1043.18 64.66 1043.04 64.66H1042.27C1042.13 64.66 1042.06 64.59 1042.06 64.45V62H1040.59C1039.85 62 1039.29 61.8133 1038.91 61.44C1038.54 61.0667 1038.35 60.53 1038.35 59.83V57.03C1038.35 56.33 1038.54 55.7933 1038.91 55.42C1039.29 55.0467 1039.85 54.86 1040.59 54.86H1042.06ZM1040.59 55.98C1040.27 55.98 1040.02 56.078 1039.82 56.274C1039.63 56.4607 1039.54 56.7127 1039.54 57.03V59.83C1039.54 60.1473 1039.63 60.404 1039.82 60.6C1040.02 60.7867 1040.27 60.88 1040.59 60.88H1042.06V55.98H1040.59ZM1044.72 60.88C1045.04 60.88 1045.29 60.7867 1045.48 60.6C1045.67 60.404 1045.77 60.1473 1045.77 59.83V57.03C1045.77 56.7127 1045.67 56.4607 1045.48 56.274C1045.29 56.078 1045.04 55.98 1044.72 55.98H1043.25V60.88H1044.72ZM1053.89 57.8V56.89C1053.89 56.5727 1053.79 56.3207 1053.6 56.134C1053.41 55.938 1053.16 55.84 1052.84 55.84H1051.16C1050.84 55.84 1050.59 55.938 1050.39 56.134C1050.2 56.3207 1050.11 56.5727 1050.11 56.89V57.8H1053.89ZM1050.11 58.92V59.97C1050.11 60.2873 1050.2 60.544 1050.39 60.74C1050.59 60.9267 1050.84 61.02 1051.16 61.02H1052.84C1053.16 61.02 1053.41 60.9267 1053.6 60.74C1053.79 60.544 1053.89 60.2873 1053.89 59.97V59.9C1053.89 59.76 1053.96 59.69 1054.1 59.69H1054.87C1055.01 59.69 1055.08 59.76 1055.08 59.9V59.97C1055.08 60.67 1054.89 61.2067 1054.51 61.58C1054.13 61.9533 1053.58 62.14 1052.84 62.14H1051.16C1050.42 62.14 1049.86 61.9533 1049.48 61.58C1049.11 61.2067 1048.92 60.67 1048.92 59.97V56.89C1048.92 56.19 1049.11 55.6533 1049.48 55.28C1049.86 54.9067 1050.42 54.72 1051.16 54.72H1052.84C1053.58 54.72 1054.13 54.9067 1054.51 55.28C1054.89 55.6533 1055.08 56.19 1055.08 56.89V58.71C1055.08 58.85 1055.01 58.92 1054.87 58.92H1050.11ZM1061.03 60.88C1061.35 60.88 1061.6 60.7867 1061.79 60.6C1061.98 60.404 1062.08 60.1473 1062.08 59.83V56.89C1062.08 56.5727 1061.98 56.3207 1061.79 56.134C1061.6 55.938 1061.35 55.84 1061.03 55.84H1059.84C1059.42 55.84 1059.07 55.98 1058.79 56.26C1058.51 56.54 1058.37 56.89 1058.37 57.31V60.88H1061.03ZM1058.37 62V64.45C1058.37 64.59 1058.3 64.66 1058.16 64.66H1057.39C1057.25 64.66 1057.18 64.59 1057.18 64.45V55.07C1057.18 54.93 1057.25 54.86 1057.39 54.86H1058.16C1058.3 54.86 1058.37 54.93 1058.37 55.07V55.56H1058.44C1058.52 55.4013 1058.62 55.2613 1058.76 55.14C1058.88 55.0373 1059.04 54.944 1059.24 54.86C1059.43 54.7667 1059.68 54.72 1059.98 54.72H1061.03C1061.77 54.72 1062.32 54.9067 1062.7 55.28C1063.08 55.6533 1063.27 56.19 1063.27 56.89V59.83C1063.27 60.53 1063.08 61.0667 1062.7 61.44C1062.32 61.8133 1061.77 62 1061.03 62H1058.37ZM1066.98 62C1066.84 62 1066.77 61.93 1066.77 61.79V55.98H1064.6C1064.46 55.98 1064.39 55.91 1064.39 55.77V55.07C1064.39 54.93 1064.46 54.86 1064.6 54.86H1070.13C1070.27 54.86 1070.34 54.93 1070.34 55.07V55.77C1070.34 55.91 1070.27 55.98 1070.13 55.98H1067.96V61.79C1067.96 61.93 1067.89 62 1067.75 62H1066.98ZM1076.5 56.89C1076.5 56.5727 1076.41 56.3207 1076.21 56.134C1076.02 55.938 1075.77 55.84 1075.45 55.84H1073.7C1073.39 55.84 1073.13 55.938 1072.93 56.134C1072.75 56.3207 1072.65 56.5727 1072.65 56.89V59.97C1072.65 60.2873 1072.75 60.544 1072.93 60.74C1073.13 60.9267 1073.39 61.02 1073.7 61.02H1075.45C1075.77 61.02 1076.02 60.9267 1076.21 60.74C1076.41 60.544 1076.5 60.2873 1076.5 59.97V56.89ZM1077.69 59.97C1077.69 60.67 1077.5 61.2067 1077.12 61.58C1076.75 61.9533 1076.19 62.14 1075.45 62.14H1073.7C1072.97 62.14 1072.41 61.9533 1072.02 61.58C1071.65 61.2067 1071.46 60.67 1071.46 59.97V56.89C1071.46 56.19 1071.65 55.6533 1072.02 55.28C1072.41 54.9067 1072.97 54.72 1073.7 54.72H1075.45C1076.19 54.72 1076.75 54.9067 1077.12 55.28C1077.5 55.6533 1077.69 56.19 1077.69 56.89V59.97ZM1082.45 53.74C1081.92 53.74 1081.52 53.6093 1081.25 53.348C1080.98 53.0773 1080.84 52.6947 1080.84 52.2V51.85C1080.84 51.71 1080.91 51.64 1081.05 51.64H1081.68C1081.82 51.64 1081.89 51.71 1081.89 51.85V52.2C1081.89 52.5733 1082.08 52.76 1082.45 52.76H1083.22C1083.6 52.76 1083.78 52.5733 1083.78 52.2V51.85C1083.78 51.71 1083.85 51.64 1083.99 51.64H1084.62C1084.76 51.64 1084.83 51.71 1084.83 51.85V52.2C1084.83 52.6947 1084.7 53.0773 1084.43 53.348C1084.16 53.6093 1083.76 53.74 1083.22 53.74H1082.45ZM1085.67 54.86C1085.81 54.86 1085.88 54.93 1085.88 55.07V61.79C1085.88 61.93 1085.81 62 1085.67 62H1084.9C1084.76 62 1084.69 61.93 1084.69 61.79V56.68H1084.62L1081.26 61.79C1081.22 61.8647 1081.17 61.9207 1081.12 61.958C1081.08 61.986 1080.98 62 1080.84 62H1080C1079.86 62 1079.79 61.93 1079.79 61.79V55.07C1079.79 54.93 1079.86 54.86 1080 54.86H1080.77C1080.91 54.86 1080.98 54.93 1080.98 55.07V60.18H1081.05L1084.41 55.07C1084.46 54.9953 1084.51 54.944 1084.55 54.916C1084.6 54.8787 1084.69 54.86 1084.83 54.86H1085.67Z" fill="#7E7E82"/>
<path opacity="0.721842" d="M403.506 36.2C403.646 36.2 403.716 36.27 403.716 36.41V45.79C403.716 45.93 403.646 46 403.506 46H402.596C402.456 46 402.386 45.93 402.386 45.79V37.46H397.206V45.79C397.206 45.93 397.136 46 396.996 46H396.086C395.946 46 395.876 45.93 395.876 45.79V36.41C395.876 36.27 395.946 36.2 396.086 36.2H403.506ZM411.132 40.89C411.132 40.5727 411.034 40.3207 410.838 40.134C410.652 39.938 410.4 39.84 410.082 39.84H408.332C408.015 39.84 407.758 39.938 407.562 40.134C407.376 40.3207 407.282 40.5727 407.282 40.89V43.97C407.282 44.2873 407.376 44.544 407.562 44.74C407.758 44.9267 408.015 45.02 408.332 45.02H410.082C410.4 45.02 410.652 44.9267 410.838 44.74C411.034 44.544 411.132 44.2873 411.132 43.97V40.89ZM412.322 43.97C412.322 44.67 412.131 45.2067 411.748 45.58C411.375 45.9533 410.82 46.14 410.082 46.14H408.332C407.595 46.14 407.035 45.9533 406.652 45.58C406.279 45.2067 406.092 44.67 406.092 43.97V40.89C406.092 40.19 406.279 39.6533 406.652 39.28C407.035 38.9067 407.595 38.72 408.332 38.72H410.082C410.82 38.72 411.375 38.9067 411.748 39.28C412.131 39.6533 412.322 40.19 412.322 40.89V43.97ZM415.755 44.11C415.615 44.81 415.377 45.3233 415.041 45.65C414.705 45.9767 414.22 46.14 413.585 46.14H413.375C413.235 46.14 413.165 46.07 413.165 45.93V45.23C413.165 45.09 413.235 45.02 413.375 45.02H413.585C413.828 45.02 414.033 44.9407 414.201 44.782C414.378 44.6233 414.5 44.3993 414.565 44.11L415.615 39.07C415.643 38.93 415.76 38.86 415.965 38.86H419.885C420.025 38.86 420.095 38.93 420.095 39.07V45.79C420.095 45.93 420.025 46 419.885 46H419.115C418.975 46 418.905 45.93 418.905 45.79V39.98H416.595L415.755 44.11ZM428.218 38.86C428.358 38.86 428.428 38.93 428.428 39.07V45.79C428.428 45.93 428.358 46 428.218 46H427.448C427.308 46 427.238 45.93 427.238 45.79V40.68H427.168L423.808 45.79C423.761 45.8647 423.714 45.9207 423.668 45.958C423.621 45.986 423.528 46 423.388 46H422.548C422.408 46 422.338 45.93 422.338 45.79V39.07C422.338 38.93 422.408 38.86 422.548 38.86H423.318C423.458 38.86 423.528 38.93 423.528 39.07V44.18H423.598L426.958 39.07C427.004 38.9953 427.051 38.944 427.098 38.916C427.144 38.8787 427.238 38.86 427.378 38.86H428.218ZM432.274 46C432.134 46 432.064 45.93 432.064 45.79V39.98H429.894C429.754 39.98 429.684 39.91 429.684 39.77V39.07C429.684 38.93 429.754 38.86 429.894 38.86H435.424C435.564 38.86 435.634 38.93 435.634 39.07V39.77C435.634 39.91 435.564 39.98 435.424 39.98H433.254V45.79C433.254 45.93 433.184 46 433.044 46H432.274ZM442.778 38.86C442.918 38.86 442.988 38.93 442.988 39.07V45.79C442.988 45.93 442.918 46 442.778 46H442.008C441.868 46 441.798 45.93 441.798 45.79V40.68H441.728L438.368 45.79C438.322 45.8647 438.275 45.9207 438.228 45.958C438.182 45.986 438.088 46 437.948 46H437.108C436.968 46 436.898 45.93 436.898 45.79V39.07C436.898 38.93 436.968 38.86 437.108 38.86H437.878C438.018 38.86 438.088 38.93 438.088 39.07V44.18H438.158L441.518 39.07C441.565 38.9953 441.612 38.944 441.658 38.916C441.705 38.8787 441.798 38.86 441.938 38.86H442.778ZM448.164 42.78H446.414V45.79C446.414 45.93 446.344 46 446.204 46H445.434C445.294 46 445.224 45.93 445.224 45.79V39.07C445.224 38.93 445.294 38.86 445.434 38.86H446.204C446.344 38.86 446.414 38.93 446.414 39.07V41.66H448.164L449.564 39.07C449.602 38.9953 449.644 38.944 449.69 38.916C449.737 38.8787 449.812 38.86 449.914 38.86H450.754C450.913 38.86 450.96 38.93 450.894 39.07L449.144 42.22L451.104 45.79C451.17 45.93 451.123 46 450.964 46H450.124C450.022 46 449.947 45.986 449.9 45.958C449.854 45.9207 449.812 45.8647 449.774 45.79L448.164 42.78ZM452.122 43.83C452.122 42.4767 452.822 41.8 454.222 41.8H456.812V40.89C456.812 40.5727 456.714 40.3207 456.518 40.134C456.332 39.938 456.08 39.84 455.762 39.84H454.782C454.465 39.84 454.208 39.938 454.012 40.134C453.826 40.3207 453.732 40.5727 453.732 40.89C453.732 41.03 453.662 41.1 453.522 41.1H452.752C452.612 41.1 452.542 41.03 452.542 40.89C452.542 40.19 452.729 39.6533 453.102 39.28C453.485 38.9067 454.045 38.72 454.782 38.72H455.762C456.5 38.72 457.055 38.9067 457.428 39.28C457.811 39.6533 458.002 40.19 458.002 40.89V45.79C458.002 45.93 457.932 46 457.792 46H457.022C456.882 46 456.812 45.93 456.812 45.79V45.3H456.742C456.668 45.4587 456.56 45.5987 456.42 45.72C456.299 45.8227 456.14 45.916 455.944 46C455.748 46.0933 455.501 46.14 455.202 46.14H454.222C452.822 46.14 452.122 45.4633 452.122 44.11V43.83ZM453.312 44.11C453.312 44.39 453.392 44.614 453.55 44.782C453.718 44.9407 453.942 45.02 454.222 45.02H455.342C455.762 45.02 456.112 44.88 456.392 44.6C456.672 44.32 456.812 43.97 456.812 43.55V42.92H454.222C453.942 42.92 453.718 43.004 453.55 43.172C453.392 43.3307 453.312 43.55 453.312 43.83V44.11ZM465.979 42.78H464.229V45.79C464.229 45.93 464.159 46 464.019 46H463.249C463.109 46 463.039 45.93 463.039 45.79V39.07C463.039 38.93 463.109 38.86 463.249 38.86H464.019C464.159 38.86 464.229 38.93 464.229 39.07V41.66H465.979L467.379 39.07C467.416 38.9953 467.458 38.944 467.505 38.916C467.552 38.8787 467.626 38.86 467.729 38.86H468.569C468.728 38.86 468.774 38.93 468.709 39.07L466.959 42.22L468.919 45.79C468.984 45.93 468.938 46 468.779 46H467.939C467.836 46 467.762 45.986 467.715 45.958C467.668 45.9207 467.626 45.8647 467.589 45.79L465.979 42.78ZM475.117 40.89C475.117 40.5727 475.019 40.3207 474.823 40.134C474.636 39.938 474.384 39.84 474.067 39.84H472.317C471.999 39.84 471.743 39.938 471.547 40.134C471.36 40.3207 471.267 40.5727 471.267 40.89V43.97C471.267 44.2873 471.36 44.544 471.547 44.74C471.743 44.9267 471.999 45.02 472.317 45.02H474.067C474.384 45.02 474.636 44.9267 474.823 44.74C475.019 44.544 475.117 44.2873 475.117 43.97V40.89ZM476.307 43.97C476.307 44.67 476.115 45.2067 475.733 45.58C475.359 45.9533 474.804 46.14 474.067 46.14H472.317C471.579 46.14 471.019 45.9533 470.637 45.58C470.263 45.2067 470.077 44.67 470.077 43.97V40.89C470.077 40.19 470.263 39.6533 470.637 39.28C471.019 38.9067 471.579 38.72 472.317 38.72H474.067C474.804 38.72 475.359 38.9067 475.733 39.28C476.115 39.6533 476.307 40.19 476.307 40.89V43.97ZM479.596 42.92V45.79C479.596 45.93 479.526 46 479.386 46H478.616C478.476 46 478.406 45.93 478.406 45.79V39.07C478.406 38.93 478.476 38.86 478.616 38.86H479.386C479.526 38.86 479.596 38.93 479.596 39.07V41.87H483.166V39.07C483.166 38.93 483.236 38.86 483.376 38.86H484.146C484.286 38.86 484.356 38.93 484.356 39.07V45.79C484.356 45.93 484.286 46 484.146 46H483.376C483.236 46 483.166 45.93 483.166 45.79V42.92H479.596ZM490.166 38.86V36.41C490.166 36.27 490.236 36.2 490.376 36.2H491.146C491.286 36.2 491.356 36.27 491.356 36.41V38.86H492.826C493.563 38.86 494.118 39.0467 494.492 39.42C494.874 39.7933 495.066 40.33 495.066 41.03V43.83C495.066 44.53 494.874 45.0667 494.492 45.44C494.118 45.8133 493.563 46 492.826 46H491.356V48.45C491.356 48.59 491.286 48.66 491.146 48.66H490.376C490.236 48.66 490.166 48.59 490.166 48.45V46H488.696C487.958 46 487.398 45.8133 487.016 45.44C486.642 45.0667 486.456 44.53 486.456 43.83V41.03C486.456 40.33 486.642 39.7933 487.016 39.42C487.398 39.0467 487.958 38.86 488.696 38.86H490.166ZM488.696 39.98C488.378 39.98 488.122 40.078 487.926 40.274C487.739 40.4607 487.646 40.7127 487.646 41.03V43.83C487.646 44.1473 487.739 44.404 487.926 44.6C488.122 44.7867 488.378 44.88 488.696 44.88H490.166V39.98H488.696ZM492.826 44.88C493.143 44.88 493.395 44.7867 493.582 44.6C493.778 44.404 493.876 44.1473 493.876 43.83V41.03C493.876 40.7127 493.778 40.4607 493.582 40.274C493.395 40.078 493.143 39.98 492.826 39.98H491.356V44.88H492.826ZM503.044 38.86C503.184 38.86 503.254 38.93 503.254 39.07V45.79C503.254 45.93 503.184 46 503.044 46H502.274C502.134 46 502.064 45.93 502.064 45.79V40.68H501.994L498.634 45.79C498.587 45.8647 498.541 45.9207 498.494 45.958C498.447 45.986 498.354 46 498.214 46H497.374C497.234 46 497.164 45.93 497.164 45.79V39.07C497.164 38.93 497.234 38.86 497.374 38.86H498.144C498.284 38.86 498.354 38.93 498.354 39.07V44.18H498.424L501.784 39.07C501.831 38.9953 501.877 38.944 501.924 38.916C501.971 38.8787 502.064 38.86 502.204 38.86H503.044ZM509.69 39.98H507.38L506.4 44.88H509.69V39.98ZM510.88 44.88H511.58C511.72 44.88 511.79 44.95 511.79 45.09V47.33C511.79 47.47 511.72 47.54 511.58 47.54H510.81C510.67 47.54 510.6 47.47 510.6 47.33V46H505.56V47.33C505.56 47.47 505.49 47.54 505.35 47.54H504.58C504.44 47.54 504.37 47.47 504.37 47.33V45.09C504.37 44.95 504.44 44.88 504.58 44.88H505.21L506.4 39.07C506.428 38.93 506.545 38.86 506.75 38.86H510.67C510.81 38.86 510.88 38.93 510.88 39.07V44.88ZM518.154 41.8V40.89C518.154 40.5727 518.056 40.3207 517.86 40.134C517.673 39.938 517.421 39.84 517.104 39.84H515.424C515.107 39.84 514.85 39.938 514.654 40.134C514.467 40.3207 514.374 40.5727 514.374 40.89V41.8H518.154ZM514.374 42.92V43.97C514.374 44.2873 514.467 44.544 514.654 44.74C514.85 44.9267 515.107 45.02 515.424 45.02H517.104C517.421 45.02 517.673 44.9267 517.86 44.74C518.056 44.544 518.154 44.2873 518.154 43.97V43.9C518.154 43.76 518.224 43.69 518.364 43.69H519.134C519.274 43.69 519.344 43.76 519.344 43.9V43.97C519.344 44.67 519.153 45.2067 518.77 45.58C518.397 45.9533 517.841 46.14 517.104 46.14H515.424C514.687 46.14 514.127 45.9533 513.744 45.58C513.371 45.2067 513.184 44.67 513.184 43.97V40.89C513.184 40.19 513.371 39.6533 513.744 39.28C514.127 38.9067 514.687 38.72 515.424 38.72H517.104C517.841 38.72 518.397 38.9067 518.77 39.28C519.153 39.6533 519.344 40.19 519.344 40.89V42.71C519.344 42.85 519.274 42.92 519.134 42.92H514.374ZM522.635 42.92V45.79C522.635 45.93 522.565 46 522.425 46H521.655C521.515 46 521.445 45.93 521.445 45.79V39.07C521.445 38.93 521.515 38.86 521.655 38.86H522.425C522.565 38.86 522.635 38.93 522.635 39.07V41.87H526.205V39.07C526.205 38.93 526.275 38.86 526.415 38.86H527.185C527.325 38.86 527.395 38.93 527.395 39.07V45.79C527.395 45.93 527.325 46 527.185 46H526.415C526.275 46 526.205 45.93 526.205 45.79V42.92H522.635ZM529.845 46C529.705 46 529.635 45.93 529.635 45.79V39.07C529.635 38.93 529.705 38.86 529.845 38.86H530.615C530.755 38.86 530.825 38.93 530.825 39.07V44.88H534.255V39.07C534.255 38.93 534.325 38.86 534.465 38.86H535.235C535.375 38.86 535.445 38.93 535.445 39.07V45.09L536.705 46.49C536.742 46.5273 536.761 46.574 536.761 46.63C536.761 46.686 536.742 46.7327 536.705 46.77L536.075 47.33C535.972 47.414 535.879 47.414 535.795 47.33L534.605 46H529.845ZM543.759 38.86C543.899 38.86 543.969 38.93 543.969 39.07V45.79C543.969 45.93 543.899 46 543.759 46H542.989C542.849 46 542.779 45.93 542.779 45.79V40.68H542.709L539.349 45.79C539.302 45.8647 539.255 45.9207 539.209 45.958C539.162 45.986 539.069 46 538.929 46H538.089C537.949 46 537.879 45.93 537.879 45.79V39.07C537.879 38.93 537.949 38.86 538.089 38.86H538.859C538.999 38.86 539.069 38.93 539.069 39.07V44.18H539.139L542.499 39.07C542.545 38.9953 542.592 38.944 542.639 38.916C542.685 38.8787 542.779 38.86 542.919 38.86H543.759ZM545.925 43.83C545.925 42.4767 546.625 41.8 548.025 41.8H550.615V40.89C550.615 40.5727 550.517 40.3207 550.321 40.134C550.134 39.938 549.882 39.84 549.565 39.84H548.585C548.268 39.84 548.011 39.938 547.815 40.134C547.628 40.3207 547.535 40.5727 547.535 40.89C547.535 41.03 547.465 41.1 547.325 41.1H546.555C546.415 41.1 546.345 41.03 546.345 40.89C546.345 40.19 546.532 39.6533 546.905 39.28C547.288 38.9067 547.848 38.72 548.585 38.72H549.565C550.302 38.72 550.858 38.9067 551.231 39.28C551.614 39.6533 551.805 40.19 551.805 40.89V45.79C551.805 45.93 551.735 46 551.595 46H550.825C550.685 46 550.615 45.93 550.615 45.79V45.3H550.545C550.47 45.4587 550.363 45.5987 550.223 45.72C550.102 45.8227 549.943 45.916 549.747 46C549.551 46.0933 549.304 46.14 549.005 46.14H548.025C546.625 46.14 545.925 45.4633 545.925 44.11V43.83ZM547.115 44.11C547.115 44.39 547.194 44.614 547.353 44.782C547.521 44.9407 547.745 45.02 548.025 45.02H549.145C549.565 45.02 549.915 44.88 550.195 44.6C550.475 44.32 550.615 43.97 550.615 43.55V42.92H548.025C547.745 42.92 547.521 43.004 547.353 43.172C547.194 43.3307 547.115 43.55 547.115 43.83V44.11ZM555.509 44.11C555.369 44.81 555.131 45.3233 554.795 45.65C554.459 45.9767 553.974 46.14 553.339 46.14H553.129C552.989 46.14 552.919 46.07 552.919 45.93V45.23C552.919 45.09 552.989 45.02 553.129 45.02H553.339C553.582 45.02 553.787 44.9407 553.955 44.782C554.132 44.6233 554.254 44.3993 554.319 44.11L555.369 39.07C555.397 38.93 555.514 38.86 555.719 38.86H559.639C559.779 38.86 559.849 38.93 559.849 39.07V45.79C559.849 45.93 559.779 46 559.639 46H558.869C558.729 46 558.659 45.93 558.659 45.79V39.98H556.349L555.509 44.11ZM565.732 44.88C566.012 44.88 566.231 44.8007 566.39 44.642C566.558 44.474 566.642 44.25 566.642 43.97V43.27C566.642 42.99 566.558 42.7707 566.39 42.612C566.231 42.444 566.012 42.36 565.732 42.36H563.282V44.88H565.732ZM562.302 46C562.162 46 562.092 45.93 562.092 45.79V39.07C562.092 38.93 562.162 38.86 562.302 38.86H563.072C563.212 38.86 563.282 38.93 563.282 39.07V41.24H565.732C567.132 41.24 567.832 41.9167 567.832 43.27V43.97C567.832 45.3233 567.132 46 565.732 46H562.302ZM570.979 42.92V45.79C570.979 45.93 570.909 46 570.769 46H569.999C569.859 46 569.789 45.93 569.789 45.79V39.07C569.789 38.93 569.859 38.86 569.999 38.86H570.769C570.909 38.86 570.979 38.93 570.979 39.07V41.87H574.549V39.07C574.549 38.93 574.619 38.86 574.759 38.86H575.529C575.669 38.86 575.739 38.93 575.739 39.07V45.79C575.739 45.93 575.669 46 575.529 46H574.759C574.619 46 574.549 45.93 574.549 45.79V42.92H570.979ZM582.878 40.89C582.878 40.5727 582.78 40.3207 582.584 40.134C582.398 39.938 582.146 39.84 581.828 39.84H580.078C579.761 39.84 579.504 39.938 579.308 40.134C579.122 40.3207 579.028 40.5727 579.028 40.89V43.97C579.028 44.2873 579.122 44.544 579.308 44.74C579.504 44.9267 579.761 45.02 580.078 45.02H581.828C582.146 45.02 582.398 44.9267 582.584 44.74C582.78 44.544 582.878 44.2873 582.878 43.97V40.89ZM584.068 43.97C584.068 44.67 583.877 45.2067 583.494 45.58C583.121 45.9533 582.566 46.14 581.828 46.14H580.078C579.341 46.14 578.781 45.9533 578.398 45.58C578.025 45.2067 577.838 44.67 577.838 43.97V40.89C577.838 40.19 578.025 39.6533 578.398 39.28C578.781 38.9067 579.341 38.72 580.078 38.72H581.828C582.566 38.72 583.121 38.9067 583.494 39.28C583.877 39.6533 584.068 40.19 584.068 40.89V43.97ZM587.218 43.97C587.218 44.2873 587.311 44.544 587.498 44.74C587.694 44.9267 587.951 45.02 588.268 45.02H589.878C590.195 45.02 590.447 44.9267 590.634 44.74C590.83 44.544 590.928 44.2873 590.928 43.97V43.62C590.928 43.48 590.998 43.41 591.138 43.41H591.908C592.048 43.41 592.118 43.48 592.118 43.62V43.97C592.118 44.67 591.927 45.2067 591.544 45.58C591.171 45.9533 590.615 46.14 589.878 46.14H588.268C587.531 46.14 586.971 45.9533 586.588 45.58C586.215 45.2067 586.028 44.67 586.028 43.97V40.89C586.028 40.19 586.215 39.6533 586.588 39.28C586.971 38.9067 587.531 38.72 588.268 38.72H589.878C590.615 38.72 591.171 38.9067 591.544 39.28C591.927 39.6533 592.118 40.19 592.118 40.89V41.24C592.118 41.38 592.048 41.45 591.908 41.45H591.138C590.998 41.45 590.928 41.38 590.928 41.24V40.89C590.928 40.5727 590.83 40.3207 590.634 40.134C590.447 39.938 590.195 39.84 589.878 39.84H588.268C587.951 39.84 587.694 39.938 587.498 40.134C587.311 40.3207 587.218 40.5727 587.218 40.89V43.97ZM595.694 46C595.554 46 595.484 45.93 595.484 45.79V39.98H593.314C593.174 39.98 593.104 39.91 593.104 39.77V39.07C593.104 38.93 593.174 38.86 593.314 38.86H598.844C598.984 38.86 599.054 38.93 599.054 39.07V39.77C599.054 39.91 598.984 39.98 598.844 39.98H596.674V45.79C596.674 45.93 596.604 46 596.464 46H595.694ZM606.198 38.86C606.338 38.86 606.408 38.93 606.408 39.07V45.79C606.408 45.93 606.338 46 606.198 46H605.428C605.288 46 605.218 45.93 605.218 45.79V40.68H605.148L601.788 45.79C601.742 45.8647 601.695 45.9207 601.648 45.958C601.602 45.986 601.508 46 601.368 46H600.528C600.388 46 600.318 45.93 600.318 45.79V39.07C600.318 38.93 600.388 38.86 600.528 38.86H601.298C601.438 38.86 601.508 38.93 601.508 39.07V44.18H601.578L604.938 39.07C604.985 38.9953 605.032 38.944 605.078 38.916C605.125 38.8787 605.218 38.86 605.358 38.86H606.198Z" fill="#7E7E82"/>
</svg>
